<?xml version="1.0" encoding="UTF-8" standalone="no"?>
<!-- Created with Inkscape (http://www.inkscape.org/) -->

<svg
   width="103.09404mm"
   height="25.273329mm"
   viewBox="0 0 103.09404 25.273329"
   version="1.1"
   id="svg1"
   xmlns="http://www.w3.org/2000/svg"
   xmlns:svg="http://www.w3.org/2000/svg">
  <defs
     id="defs1" />
  <g
     id="g71"
     style="display:inline"
     transform="translate(-15.921777,-110)">
    <rect
       style="fill:none;stroke:#000000;stroke-width:0.176389;stroke-dasharray:none"
       id="rect24"
       width="20"
       height="20"
       x="35.000004"
       y="115" />
    <path
       style="fill:none;stroke:#000000;stroke-width:0.176389;stroke-dasharray:none"
       d="m 34.999998,135 20,-20.00001"
       id="path24" />
    <path
       style="fill:none;stroke:#000000;stroke-width:0.176389;stroke-dasharray:none"
       d="m 46.999998,129.75 h 5.000001"
       id="path25" />
    <path
       style="fill:none;stroke:#000000;stroke-width:0.176389;stroke-dasharray:none"
       d="m 46.999998,131 h 5.000001"
       id="path26" />
    <path
       style="fill:none;stroke:#000000;stroke-width:0.176389;stroke-dasharray:none"
       d="m 38.535609,121 c 0.821463,-2.1775 0.821463,-2.1775 1.232194,-2.1775 0.410732,0 0.821463,0.72584 1.232195,2.1775 0.410732,1.45167 0.821463,2.1775 1.232195,2.1775 0.410731,0 1.232195,-2.1775 1.232195,-2.1775"
       id="path27" />
    <rect
       style="fill:none;stroke:#000000;stroke-width:0.176389;stroke-dasharray:none"
       id="rect27"
       width="20"
       height="20"
       x="79.937637"
       y="115.06236" />
    <path
       style="fill:none;stroke:#000000;stroke-width:0.176389;stroke-dasharray:none"
       d="m 79.937637,135.06236 20.000012,-20"
       id="path28" />
    <path
       style="fill:none;stroke:#000000;stroke-width:0.176389;stroke-dasharray:none"
       d="m 83.499999,120.75 h 5"
       id="path29" />
    <path
       style="fill:none;stroke:#000000;stroke-width:0.176389;stroke-dasharray:none"
       d="m 83.499999,122 h 5"
       id="path30" />
    <path
       style="fill:none;stroke:#000000;stroke-width:0.176389;stroke-dasharray:none"
       d="m 92.535619,129 c 0.82146,-2.1775 0.82146,-2.1775 1.23219,-2.1775 0.41073,0 0.82147,0.72584 1.2322,2.1775 0.41073,1.45167 0.82146,2.1775 1.23219,2.1775 0.41073,0 1.2322,-2.1775 1.2322,-2.1775"
       id="path31" />
    <path
       style="fill:none;stroke:#000000;stroke-width:0.176389;stroke-dasharray:none;stroke-dashoffset:0"
       d="M 54.937635,117.93763 H 79.937636"
       id="path33" />
    <ellipse
       style="fill:none;stroke:#000000;stroke-width:0.176389;stroke-dasharray:none"
       id="ellipse47"
       cx="23.667233"
       cy="125.08234"
       rx="2.3333337"
       ry="2.3333328" />
    <ellipse
       style="fill:none;stroke:#000000;stroke-width:0.176389;stroke-dasharray:none"
       id="ellipse48"
       cx="26.667236"
       cy="125.08234"
       rx="2.3333337"
       ry="2.3333328" />
    <path
       style="fill:none;stroke:#000000;stroke-width:0.156043;stroke-dasharray:none;stroke-dashoffset:0"
       d="m 28.999999,125.02045 6,-0.0409"
       id="path48" />
    <path
       style="fill:none;stroke:#000000;stroke-width:0.147176;stroke-dasharray:none;stroke-dashoffset:0"
       d="m 15.922345,125.06145 5.323943,-0.041"
       id="path49" />
    <ellipse
       style="fill:none;stroke:#000000;stroke-width:0.176389;stroke-dasharray:none"
       id="ellipse47-4"
       cx="107.68253"
       cy="125.08324"
       rx="2.3333337"
       ry="2.3333328" />
    <ellipse
       style="fill:none;stroke:#000000;stroke-width:0.176389;stroke-dasharray:none"
       id="ellipse48-6"
       cx="110.68253"
       cy="125.08324"
       rx="2.3333337"
       ry="2.3333328" />
    <path
       style="fill:none;stroke:#000000;stroke-width:0.156043;stroke-dasharray:none;stroke-dashoffset:0"
       d="m 113.01529,125.02136 6,-0.0409"
       id="path48-1" />
    <path
       style="fill:none;stroke:#000000;stroke-width:0.147176;stroke-dasharray:none;stroke-dashoffset:0"
       d="m 99.937639,125.06236 5.323941,-0.041"
       id="path49-8" />
    <path
       style="fill:none;stroke:#000000;stroke-width:0.176389;stroke-dasharray:none;stroke-dashoffset:0"
       d="M 54.974057,132.9012 H 58"
       id="path59" />
    <path
       style="fill:none;stroke:#000000;stroke-width:0.176389;stroke-dasharray:none;stroke-dashoffset:0"
       d="m 57.911806,132.81301 v 1.48966"
       id="path60" />
    <path
       style="fill:none;stroke:#000000;stroke-width:0.176389;stroke-dasharray:none;stroke-dashoffset:0"
       d="m 56.911894,134.3532 2,0.002"
       id="path61" />
    <path
       style="fill:none;stroke:#000000;stroke-width:0.176389;stroke-dasharray:none;stroke-dashoffset:0"
       d="m 57.151838,134.73466 1.519935,-0.004"
       id="path62" />
    <path
       style="fill:none;stroke:#000000;stroke-width:0.176389;stroke-dasharray:none;stroke-dashoffset:0"
       d="m 57.373171,135.08434 c 0.527306,6.7e-4 0.688354,0.001 1.028017,0.002"
       id="path63" />
    <path
       style="fill:none;stroke:#000000;stroke-width:0.176389;stroke-dasharray:none;stroke-dashoffset:0"
       d="M 76.974057,132.9118 H 80"
       id="path59-5" />
    <path
       style="fill:none;stroke:#000000;stroke-width:0.176389;stroke-dasharray:none;stroke-dashoffset:0"
       d="m 76.974057,132.9118 v 1.48966"
       id="path60-8" />
    <path
       style="fill:none;stroke:#000000;stroke-width:0.176389;stroke-dasharray:none;stroke-dashoffset:0"
       d="m 75.974145,134.45199 2,0.002"
       id="path61-6" />
    <path
       style="fill:none;stroke:#000000;stroke-width:0.176389;stroke-dasharray:none;stroke-dashoffset:0"
       d="m 76.214089,134.83345 1.519935,-0.004"
       id="path62-2" />
    <path
       style="fill:none;stroke:#000000;stroke-width:0.176389;stroke-dasharray:none;stroke-dashoffset:0"
       d="m 76.435422,135.18313 c 0.527306,6.7e-4 0.688354,0.001 1.028017,0.002"
       id="path63-6" />
    <text
       xml:space="preserve"
       style="font-size:2.48013px;text-align:start;writing-mode:lr-tb;direction:ltr;text-anchor:start;display:inline;fill:#000000;stroke:#000000;stroke-width:0.137784;stroke-dasharray:none;stroke-dashoffset:0"
       x="39.690342"
       y="112.32903"
       id="text10-6-8-4-8"
       transform="scale(1.0034145,0.99659712)"><tspan
         id="tspan10-0-8-4-2"
         style="fill:#000000;stroke-width:0.137784"
         x="39.690342"
         y="112.32903">DC detailed model - Asymmetrical monopole</tspan></text>
  </g>
</svg>
