<?xml version="1.0" encoding="UTF-8" standalone="no"?>
<svg
   xmlns:dc="http://purl.org/dc/elements/1.1/"
   xmlns:cc="http://creativecommons.org/ns#"
   xmlns:rdf="http://www.w3.org/1999/02/22-rdf-syntax-ns#"
   xmlns:svg="http://www.w3.org/2000/svg"
   xmlns="http://www.w3.org/2000/svg"
   xmlns:sodipodi="http://sodipodi.sourceforge.net/DTD/sodipodi-0.dtd"
   xmlns:inkscape="http://www.inkscape.org/namespaces/inkscape"
   inkscape:version="1.0beta1 (76ce730, 2019-10-19)"
   sodipodi:docname="threeWindingsTransformer.6d.svg"
   viewBox="0 0 659.74152 393.03587"
   height="393.03586"
   width="659.74152"
   xml:space="preserve"
   id="svg10"
   version="1.1"><metadata
     id="metadata16"><rdf:RDF><cc:Work
         rdf:about=""><dc:format>image/svg+xml</dc:format><dc:type
           rdf:resource="http://purl.org/dc/dcmitype/StillImage" /><dc:title></dc:title></cc:Work></rdf:RDF></metadata><defs
     id="defs14"><clipPath
       id="clipPath26"
       clipPathUnits="userSpaceOnUse"><path
         inkscape:connector-curvature="0"
         id="path24"
         clip-rule="evenodd"
         d="M 0,0 H 2483.3333 V 3506.0588 H 0 Z" /></clipPath><clipPath
       id="clipPath38"
       clipPathUnits="userSpaceOnUse"><path
         inkscape:connector-curvature="0"
         id="path36"
         clip-rule="evenodd"
         d="M 0,0 H 2483.3333 V 3506.0588 H 0 Z" /></clipPath></defs><sodipodi:namedview
     inkscape:current-layer="g18"
     inkscape:window-maximized="0"
     inkscape:window-y="23"
     inkscape:window-x="0"
     inkscape:cy="196.51793"
     inkscape:cx="329.87077"
     inkscape:zoom="1.8014354"
     fit-margin-bottom="10"
     fit-margin-right="10"
     fit-margin-left="10"
     fit-margin-top="10"
     showgrid="false"
     id="namedview12"
     inkscape:window-height="880"
     inkscape:window-width="1600"
     inkscape:pageshadow="2"
     inkscape:pageopacity="0"
     guidetolerance="10"
     gridtolerance="10"
     objecttolerance="10"
     borderopacity="1"
     inkscape:document-rotation="0"
     bordercolor="#666666"
     pagecolor="#ffffff" /><g
     transform="matrix(0.31999998,0,0,0.31999998,-128.60949,-48.063249)"
     inkscape:label="xfmr3 change proposal single shunt admittance - texts not formatted.6"
     inkscape:groupmode="layer"
     id="g18"><g
       id="g20"><g
         clip-path="url(#clipPath26)"
         id="g22"><g
           transform="scale(2.9991949)"
           id="g28"><path
             inkscape:connector-curvature="0"
             id="path30"
             style="fill:#ffffff;fill-opacity:1;fill-rule:nonzero;stroke:none"
             d="M 0,0 H 828 V 1169 H 0 Z" /></g></g></g><g
       transform="matrix(0.89956325,0,0,0.90315611,244.2971,17.572098)"
       id="g32"><g
         clip-path="url(#clipPath38)"
         id="g34"><g
           transform="matrix(2.9991949,0,0,2.9991949,1.4995974,1.4995974)"
           id="g40"><path
             inkscape:connector-curvature="0"
             id="path42"
             style="fill:#ffffff;fill-opacity:1;fill-rule:nonzero;stroke:none"
             d="m 530,300 h 120 v 20 H 530 Z" /><path
             inkscape:connector-curvature="0"
             id="path44"
             style="fill:none;stroke:#000000;stroke-width:1;stroke-linecap:butt;stroke-linejoin:miter;stroke-miterlimit:10;stroke-dasharray:none;stroke-opacity:1"
             d="m 530,300 h 120 v 20 H 530 Z" /></g><g
           transform="matrix(0,2.9991949,-2.9991949,0,3240.6301,-838.27496)"
           id="g46"><path
             inkscape:connector-curvature="0"
             id="path48"
             style="fill:#ffffff;fill-opacity:1;fill-rule:nonzero;stroke:none"
             d="m 620,390 h 120 v 20 H 620 Z" /><path
             inkscape:connector-curvature="0"
             id="path50"
             style="fill:none;stroke:#000000;stroke-width:1;stroke-linecap:butt;stroke-linejoin:miter;stroke-miterlimit:10;stroke-dasharray:none;stroke-opacity:1"
             d="m 620,390 h 120 v 20 H 620 Z" /></g><g
           transform="matrix(2.9991949,0,0,2.9991949,1.4995974,1.4995974)"
           id="g52"><path
             inkscape:connector-curvature="0"
             id="path54"
             style="fill:none;stroke:#000000;stroke-width:1;stroke-linecap:butt;stroke-linejoin:miter;stroke-miterlimit:10;stroke-dasharray:none;stroke-opacity:1"
             d="m 480,310 h 50" /><path
             inkscape:connector-curvature="0"
             id="path56"
             style="fill:none;stroke:#000000;stroke-width:1;stroke-linecap:butt;stroke-linejoin:miter;stroke-miterlimit:10;stroke-dasharray:none;stroke-opacity:1"
             d="m 650,309.5 50,0.5" /><path
             inkscape:connector-curvature="0"
             id="path58"
             style="fill:none;stroke:#000000;stroke-width:1;stroke-linecap:butt;stroke-linejoin:miter;stroke-miterlimit:10;stroke-dasharray:none;stroke-opacity:1"
             d="M 680,340 V 310" /><path
             inkscape:connector-curvature="0"
             id="path60"
             style="fill:none;stroke:#000000;stroke-width:1;stroke-linecap:butt;stroke-linejoin:miter;stroke-miterlimit:10;stroke-dasharray:none;stroke-opacity:1"
             d="M 790,310 H 760" /><path
             inkscape:connector-curvature="0"
             id="path62"
             style="fill:#e6e6e6;fill-opacity:1;fill-rule:nonzero;stroke:none"
             d="m 810,310 c -6e-5,0.65659 -0.0641,1.30688 -0.1922,1.95087 -0.12811,0.64401 -0.31781,1.26931 -0.56909,1.87594 -0.25134,0.6066 -0.55939,1.18289 -0.92413,1.72885 -0.36481,0.54596 -0.77936,1.05109 -1.2436,1.51538 -0.46429,0.46427 -0.96942,0.87882 -1.51538,1.24363 -0.54596,0.36477 -1.12225,0.67279 -1.72888,0.92407 -0.60663,0.25125 -1.23193,0.44095 -1.87591,0.56909 -0.64399,0.12808 -1.29425,0.19214 -1.95081,0.19217 -0.65668,-3e-5 -1.30701,-0.0641 -1.95099,-0.19217 -0.64398,-0.12814 -1.26929,-0.31784 -1.87591,-0.56909 -0.60663,-0.25128 -1.18293,-0.5593 -1.72895,-0.92407 -0.54596,-0.36481 -1.05102,-0.77936 -1.51532,-1.24363 -0.46429,-0.46429 -0.87884,-0.96942 -1.24365,-1.51538 -0.36481,-0.54596 -0.67285,-1.12225 -0.92413,-1.72885 -0.25128,-0.60663 -0.44092,-1.23193 -0.56903,-1.87594 C 790.06396,311.30688 789.99994,310.65659 790,310 c -6e-5,-0.65662 0.064,-1.30692 0.19202,-1.95093 0.12811,-0.64401 0.31775,-1.26932 0.56903,-1.87594 0.25128,-0.60666 0.55926,-1.18296 0.92407,-1.72889 0.36481,-0.54596 0.77942,-1.05108 1.24371,-1.51535 0.4643,-0.46429 0.96942,-0.87884 1.51538,-1.24362 0.54596,-0.3648 1.12226,-0.67285 1.72889,-0.9241 0.60662,-0.25125 1.23193,-0.44095 1.87591,-0.56903 C 798.69299,300.06406 799.34332,300 800,300 c 0.65656,0 1.30682,0.0641 1.95081,0.19214 0.64398,0.12808 1.26928,0.31778 1.87591,0.56903 0.60663,0.25125 1.18292,0.5593 1.72888,0.9241 0.54596,0.36478 1.05109,0.77933 1.51538,1.24362 0.46424,0.46427 0.87879,0.96939 1.2436,1.51535 0.36474,0.54593 0.67279,1.12223 0.92413,1.72889 0.25128,0.60662 0.44098,1.23193 0.56909,1.87594 0.12811,0.64401 0.19214,1.29431 0.1922,1.95093 z" /><path
             inkscape:connector-curvature="0"
             id="path64"
             style="fill:none;stroke:#000000;stroke-width:1;stroke-linecap:butt;stroke-linejoin:miter;stroke-miterlimit:10;stroke-dasharray:none;stroke-opacity:1"
             d="m 810,310 c -6e-5,0.65659 -0.0641,1.30688 -0.1922,1.95087 -0.12811,0.64401 -0.31781,1.26931 -0.56909,1.87594 -0.25134,0.6066 -0.55939,1.18289 -0.92413,1.72885 -0.36481,0.54596 -0.77936,1.05109 -1.2436,1.51538 -0.46429,0.46427 -0.96942,0.87882 -1.51538,1.24363 -0.54596,0.36477 -1.12225,0.67279 -1.72888,0.92407 -0.60663,0.25125 -1.23193,0.44095 -1.87591,0.56909 -0.64399,0.12808 -1.29425,0.19214 -1.95081,0.19217 -0.65668,-3e-5 -1.30701,-0.0641 -1.95099,-0.19217 -0.64398,-0.12814 -1.26929,-0.31784 -1.87591,-0.56909 -0.60663,-0.25128 -1.18293,-0.5593 -1.72895,-0.92407 -0.54596,-0.36481 -1.05102,-0.77936 -1.51532,-1.24363 -0.46429,-0.46429 -0.87884,-0.96942 -1.24365,-1.51538 -0.36481,-0.54596 -0.67285,-1.12225 -0.92413,-1.72885 -0.25128,-0.60663 -0.44092,-1.23193 -0.56903,-1.87594 C 790.06396,311.30688 789.99994,310.65659 790,310 c -6e-5,-0.65662 0.064,-1.30692 0.19202,-1.95093 0.12811,-0.64401 0.31775,-1.26932 0.56903,-1.87594 0.25128,-0.60666 0.55926,-1.18296 0.92407,-1.72889 0.36481,-0.54596 0.77942,-1.05108 1.24371,-1.51535 0.4643,-0.46429 0.96942,-0.87884 1.51538,-1.24362 0.54596,-0.3648 1.12226,-0.67285 1.72889,-0.9241 0.60662,-0.25125 1.23193,-0.44095 1.87591,-0.56903 C 798.69299,300.06406 799.34332,300 800,300 c 0.65656,0 1.30682,0.0641 1.95081,0.19214 0.64398,0.12808 1.26928,0.31778 1.87591,0.56903 0.60663,0.25125 1.18292,0.5593 1.72888,0.9241 0.54596,0.36478 1.05109,0.77933 1.51538,1.24362 0.46424,0.46427 0.87879,0.96939 1.2436,1.51535 0.36474,0.54593 0.67279,1.12223 0.92413,1.72889 0.25128,0.60662 0.44098,1.23193 0.56909,1.87594 0.12811,0.64401 0.19214,1.29431 0.1922,1.95093 z" /><path
             inkscape:connector-curvature="0"
             id="path66"
             style="fill:#ffffff;fill-opacity:1;fill-rule:nonzero;stroke:none"
             d="m 740,310 c -6e-5,1.3132 -0.12817,2.61377 -0.3844,3.90173 -0.25616,1.288 -0.63556,2.53861 -1.13806,3.75186 -0.5025,1.21326 -1.11859,2.36585 -1.84821,3.45774 -0.72955,1.09192 -1.55865,2.10217 -2.48724,3.03076 -0.92859,0.92859 -1.93884,1.75766 -3.03076,2.48724 -1.09192,0.72959 -2.24451,1.34568 -3.45777,1.84821 -1.21325,0.50253 -2.46386,0.88193 -3.75177,1.13812 -1.28802,0.2562 -2.58862,0.38431 -3.90179,0.38434 -1.31323,-3e-5 -2.61383,-0.12814 -3.90186,-0.38434 -1.28796,-0.25619 -2.53857,-0.63559 -3.75189,-1.13812 -1.21325,-0.50253 -2.36584,-1.11862 -3.4577,-1.84821 -1.09192,-0.72958 -2.10217,-1.55865 -3.03076,-2.48724 -0.92859,-0.92859 -1.75769,-1.93884 -2.48725,-3.03076 -0.72955,-1.09189 -1.34564,-2.24448 -1.8482,-3.45774 -0.5025,-1.21325 -0.8819,-2.46386 -1.13812,-3.75186 C 700.12805,312.61377 699.99994,311.3132 700,310 c -6e-5,-1.31323 0.12805,-2.61383 0.38422,-3.90179 0.25622,-1.288 0.63562,-2.53864 1.13812,-3.7519 0.50256,-1.21325 1.11865,-2.36584 1.8482,-3.45776 0.72956,-1.09189 1.55866,-2.10214 2.48725,-3.0307 0.92859,-0.92862 1.93884,-1.75769 3.03076,-2.48728 1.09186,-0.72958 2.24445,-1.34564 3.4577,-1.84817 1.21332,-0.50253 2.46393,-0.8819 3.75189,-1.13809 C 717.38617,290.12811 718.68677,290 720,290 c 1.31317,0 2.61377,0.12811 3.90173,0.38431 1.28797,0.25619 2.53858,0.63556 3.75183,1.13809 1.21326,0.50253 2.36585,1.11859 3.45777,1.84817 1.09192,0.72959 2.10217,1.55866 3.03076,2.48728 0.92859,0.92856 1.75769,1.93881 2.48724,3.0307 0.72962,1.09192 1.34571,2.24451 1.84821,3.45776 0.5025,1.21326 0.8819,2.4639 1.13806,3.7519 0.25623,1.28796 0.38434,2.58856 0.3844,3.90179 z" /><path
             inkscape:connector-curvature="0"
             id="path68"
             style="fill:none;stroke:#000000;stroke-width:1;stroke-linecap:butt;stroke-linejoin:miter;stroke-miterlimit:10;stroke-dasharray:none;stroke-opacity:1"
             d="m 740,310 c -6e-5,1.3132 -0.12817,2.61377 -0.3844,3.90173 -0.25616,1.288 -0.63556,2.53861 -1.13806,3.75186 -0.5025,1.21326 -1.11859,2.36585 -1.84821,3.45774 -0.72955,1.09192 -1.55865,2.10217 -2.48724,3.03076 -0.92859,0.92859 -1.93884,1.75766 -3.03076,2.48724 -1.09192,0.72959 -2.24451,1.34568 -3.45777,1.84821 -1.21325,0.50253 -2.46386,0.88193 -3.75177,1.13812 -1.28802,0.2562 -2.58862,0.38431 -3.90179,0.38434 -1.31323,-3e-5 -2.61383,-0.12814 -3.90186,-0.38434 -1.28796,-0.25619 -2.53857,-0.63559 -3.75189,-1.13812 -1.21325,-0.50253 -2.36584,-1.11862 -3.4577,-1.84821 -1.09192,-0.72958 -2.10217,-1.55865 -3.03076,-2.48724 -0.92859,-0.92859 -1.75769,-1.93884 -2.48725,-3.03076 -0.72955,-1.09189 -1.34564,-2.24448 -1.8482,-3.45774 -0.5025,-1.21325 -0.8819,-2.46386 -1.13812,-3.75186 C 700.12805,312.61377 699.99994,311.3132 700,310 c -6e-5,-1.31323 0.12805,-2.61383 0.38422,-3.90179 0.25622,-1.288 0.63562,-2.53864 1.13812,-3.7519 0.50256,-1.21325 1.11865,-2.36584 1.8482,-3.45776 0.72956,-1.09189 1.55866,-2.10214 2.48725,-3.0307 0.92859,-0.92862 1.93884,-1.75769 3.03076,-2.48728 1.09186,-0.72958 2.24445,-1.34564 3.4577,-1.84817 1.21332,-0.50253 2.46393,-0.8819 3.75189,-1.13809 C 717.38617,290.12811 718.68677,290 720,290 c 1.31317,0 2.61377,0.12811 3.90173,0.38431 1.28797,0.25619 2.53858,0.63556 3.75183,1.13809 1.21326,0.50253 2.36585,1.11859 3.45777,1.84817 1.09192,0.72959 2.10217,1.55866 3.03076,2.48728 0.92859,0.92856 1.75769,1.93881 2.48724,3.0307 0.72962,1.09192 1.34571,2.24451 1.84821,3.45776 0.5025,1.21326 0.8819,2.4639 1.13806,3.7519 0.25623,1.28796 0.38434,2.58856 0.3844,3.90179 z" /><path
             inkscape:connector-curvature="0"
             id="path70"
             style="fill:none;stroke:#000000;stroke-width:1;stroke-linecap:butt;stroke-linejoin:miter;stroke-miterlimit:10;stroke-dasharray:none;stroke-opacity:1"
             d="m 760,310 c -6e-5,1.3132 -0.12817,2.61377 -0.38434,3.90173 -0.25622,1.288 -0.63562,2.53861 -1.13812,3.75186 -0.50256,1.21326 -1.11865,2.36585 -1.84827,3.45774 -0.72955,1.09192 -1.55865,2.10217 -2.48718,3.03076 -0.92859,0.92859 -1.93884,1.75766 -3.03076,2.48724 -1.09192,0.72959 -2.24451,1.34568 -3.45777,1.84821 -1.21325,0.50253 -2.46386,0.88193 -3.75183,1.13812 -1.28796,0.2562 -2.58856,0.38431 -3.90173,0.38434 -1.31329,-3e-5 -2.61389,-0.12814 -3.90192,-0.38434 -1.28796,-0.25619 -2.53857,-0.63559 -3.75183,-1.13812 -1.21325,-0.50253 -2.36584,-1.11862 -3.4577,-1.84821 -1.09186,-0.72958 -2.10211,-1.55865 -3.0307,-2.48724 -0.92859,-0.92859 -1.75769,-1.93884 -2.48731,-3.03076 -0.72955,-1.09189 -1.34564,-2.24448 -1.8482,-3.45774 -0.5025,-1.21325 -0.8819,-2.46386 -1.13812,-3.75186 C 720.12805,312.61377 720,311.3132 720,310 c 0,-1.31323 0.12811,-2.61383 0.38428,-3.90179 0.25616,-1.288 0.63556,-2.53864 1.13812,-3.7519 0.5025,-1.21325 1.11859,-2.36584 1.84814,-3.45776 0.72962,-1.09189 1.55872,-2.10214 2.48731,-3.0307 0.92859,-0.92862 1.93884,-1.75769 3.0307,-2.48728 1.09186,-0.72958 2.24445,-1.34564 3.4577,-1.84817 1.21326,-0.50253 2.46387,-0.8819 3.75189,-1.13809 C 737.38611,290.12811 738.68671,290 740,290 c 1.31317,0 2.61377,0.12811 3.90173,0.38431 1.28797,0.25619 2.53858,0.63556 3.75183,1.13809 1.21326,0.50253 2.36585,1.11859 3.45777,1.84817 1.09192,0.72959 2.10217,1.55866 3.03076,2.48728 0.92853,0.92856 1.75763,1.93881 2.48718,3.0307 0.72962,1.09192 1.34571,2.24451 1.84827,3.45776 0.5025,1.21326 0.8819,2.4639 1.13812,3.7519 0.25617,1.28796 0.38428,2.58856 0.38434,3.90179 z" /><path
             inkscape:connector-curvature="0"
             id="path72"
             style="fill:none;stroke:#000000;stroke-width:1;stroke-linecap:butt;stroke-linejoin:miter;stroke-miterlimit:10;stroke-dasharray:none;stroke-opacity:1"
             d="M 760,340 704.5,284.5" /><path
             inkscape:connector-curvature="0"
             id="path74"
             style="fill:#000000;fill-opacity:1;fill-rule:nonzero;stroke:none"
             d="m 700.78998,280.79001 7.42999,2.47998 L 704.5,284.5 l -1.22998,3.72 z" /><path
             inkscape:connector-curvature="0"
             id="path76"
             style="fill:none;stroke:#000000;stroke-width:1;stroke-linecap:butt;stroke-linejoin:miter;stroke-miterlimit:10;stroke-dasharray:none;stroke-opacity:1"
             d="m 700.78998,280.79001 7.42999,2.47998 L 704.5,284.5 l -1.22998,3.72 z" /><path
             inkscape:connector-curvature="0"
             id="path78"
             style="fill:none;stroke:#000000;stroke-width:1;stroke-linecap:butt;stroke-linejoin:miter;stroke-miterlimit:10;stroke-dasharray:none;stroke-opacity:1"
             d="M 680,479.85999 679.85999,460" /><path
             inkscape:connector-curvature="0"
             id="path80"
             style="fill:none;stroke:#000000;stroke-width:1;stroke-linecap:butt;stroke-linejoin:miter;stroke-miterlimit:10;stroke-dasharray:none;stroke-opacity:1"
             d="m 670,479.85999 h 20" /><path
             inkscape:connector-curvature="0"
             id="path82"
             style="fill:none;stroke:#000000;stroke-width:1;stroke-linecap:butt;stroke-linejoin:miter;stroke-miterlimit:10;stroke-dasharray:none;stroke-opacity:1"
             d="m 675,489.85999 h 7.5 c 5,0 5,0 0,0 H 675" /></g><g
           transform="matrix(2.9991949,0,0,2.9991949,2384.3599,962.74158)"
           id="g84"><text
             id="text88"
             style="font-variant:normal;font-weight:normal;font-size:18.554px;font-family:'Cambria Math';-inkscape-font-specification:CambriaMath;writing-mode:lr-tb;fill:#000000;fill-opacity:1;fill-rule:nonzero;stroke:none"
             transform="matrix(0.9701425,0,-0.24253563,0.9701425,0.015625,17)"><tspan
               id="tspan86"
               y="0"
               x="0">3</tspan></text></g><g
           transform="matrix(2.9991949,0,0,2.9991949,2120.4307,1040.7206)"
           id="g90"><text
             id="text94"
             style="font-variant:normal;font-weight:normal;font-size:18.554px;font-family:'Cambria Math';-inkscape-font-specification:CambriaMath;writing-mode:lr-tb;fill:#000000;fill-opacity:1;fill-rule:nonzero;stroke:none"
             transform="matrix(0.9701425,0,-0.24253563,0.9701425,0.71875,21)"><tspan
               id="tspan92"
               y="0"
               x="0">ρ</tspan></text><text
             id="text98"
             style="font-variant:normal;font-weight:normal;font-size:15.4616px;font-family:'Cambria Math';-inkscape-font-specification:CambriaMath;writing-mode:lr-tb;fill:#000000;fill-opacity:1;fill-rule:nonzero;stroke:none"
             transform="matrix(0.9701425,0,-0.24253563,0.9701425,10.296875,25)"><tspan
               id="tspan96"
               y="0"
               x="0">3</tspan></text><text
             id="text102"
             style="font-variant:normal;font-weight:normal;font-size:18.554px;font-family:'Cambria Math';-inkscape-font-specification:CambriaMath;writing-mode:lr-tb;fill:#000000;fill-opacity:1;fill-rule:nonzero;stroke:none"
             transform="matrix(0.9701425,0,-0.24253563,0.9701425,18.59375,21)"><tspan
               id="tspan100"
               y="0"
               x="0">e</tspan></text><text
             id="text106"
             style="font-variant:normal;font-weight:normal;font-size:15.4616px;font-family:'Cambria Math';-inkscape-font-specification:CambriaMath;writing-mode:lr-tb;fill:#000000;fill-opacity:1;fill-rule:nonzero;stroke:none"
             transform="matrix(0.9701425,0,-0.24253563,0.9701425,27.359375,14)"><tspan
               id="tspan104"
               y="0"
               x="0">j</tspan></text><text
             id="text110"
             style="font-variant:normal;font-weight:normal;font-size:15.4616px;font-family:'Cambria Math';-inkscape-font-specification:CambriaMath;writing-mode:lr-tb;fill:#000000;fill-opacity:1;fill-rule:nonzero;stroke:none"
             transform="matrix(0.9701425,0,-0.24253563,0.9701425,31.34375,14)"><tspan
               id="tspan108"
               sodipodi:role="line"
               y="0"
               x="0 8.8783674">α3</tspan></text></g><g
           transform="matrix(2.9991949,0,0,2.9991949,1691.5459,956.74316)"
           id="g112"><text
             id="text116"
             style="font-variant:normal;font-weight:normal;font-size:18.554px;font-family:'Cambria Math';-inkscape-font-specification:CambriaMath;writing-mode:lr-tb;fill:#000000;fill-opacity:1;fill-rule:nonzero;stroke:none"
             transform="matrix(0.9701425,0,-0.24253563,0.9701425,0.515625,17)"><tspan
               id="tspan114"
               y="0"
               x="0">r</tspan></text><text
             id="text120"
             style="font-variant:normal;font-weight:normal;font-size:15.4616px;font-family:'Cambria Math';-inkscape-font-specification:CambriaMath;writing-mode:lr-tb;fill:#000000;fill-opacity:1;fill-rule:nonzero;stroke:none"
             transform="matrix(0.9701425,0,-0.24253563,0.9701425,7.953125,21)"><tspan
               id="tspan118"
               y="0"
               x="0">3</tspan></text><text
             id="text124"
             style="font-variant:normal;font-weight:normal;font-size:18.554px;font-family:'Cambria Math';-inkscape-font-specification:CambriaMath;writing-mode:lr-tb;fill:#000000;fill-opacity:1;fill-rule:nonzero;stroke:none"
             transform="matrix(0.9701425,0,-0.24253563,0.9701425,16.25,17)"><tspan
               id="tspan122"
               sodipodi:role="line"
               y="0"
               x="0 13.861124 18.798584">+jx</tspan></text><text
             id="text128"
             style="font-variant:normal;font-weight:normal;font-size:15.4616px;font-family:'Cambria Math';-inkscape-font-specification:CambriaMath;writing-mode:lr-tb;fill:#000000;fill-opacity:1;fill-rule:nonzero;stroke:none"
             transform="matrix(0.9701425,0,-0.24253563,0.9701425,43.1875,21)"><tspan
               id="tspan126"
               y="0"
               x="0">3</tspan></text></g><g
           transform="matrix(2.9991949,0,0,2.9991949,1.4995974,1.4995974)"
           id="g130"><path
             inkscape:connector-curvature="0"
             id="path132"
             style="fill:#ffffff;fill-opacity:1;fill-rule:nonzero;stroke:none"
             d="m 530,80 h 120 v 20 H 530 Z" /><path
             inkscape:connector-curvature="0"
             id="path134"
             style="fill:none;stroke:#000000;stroke-width:1;stroke-linecap:butt;stroke-linejoin:miter;stroke-miterlimit:10;stroke-dasharray:none;stroke-opacity:1"
             d="m 530,80 h 120 v 20 H 530 Z" /></g><g
           transform="matrix(0,2.9991949,-2.9991949,0,2580.8071,-1498.0978)"
           id="g136"><path
             inkscape:connector-curvature="0"
             id="path138"
             style="fill:#ffffff;fill-opacity:1;fill-rule:nonzero;stroke:none"
             d="m 620,170 h 120 v 20 H 620 Z" /><path
             inkscape:connector-curvature="0"
             id="path140"
             style="fill:none;stroke:#000000;stroke-width:1;stroke-linecap:butt;stroke-linejoin:miter;stroke-miterlimit:10;stroke-dasharray:none;stroke-opacity:1"
             d="m 620,170 h 120 v 20 H 620 Z" /></g><g
           transform="matrix(2.9991949,0,0,2.9991949,1.4995974,1.4995974)"
           id="g142"><path
             inkscape:connector-curvature="0"
             id="path144"
             style="fill:none;stroke:#000000;stroke-width:1;stroke-linecap:butt;stroke-linejoin:miter;stroke-miterlimit:10;stroke-dasharray:none;stroke-opacity:1"
             d="m 480,90 h 50" /><path
             inkscape:connector-curvature="0"
             id="path146"
             style="fill:none;stroke:#000000;stroke-width:1;stroke-linecap:butt;stroke-linejoin:miter;stroke-miterlimit:10;stroke-dasharray:none;stroke-opacity:1"
             d="M 650,89.5 700,90" /><path
             inkscape:connector-curvature="0"
             id="path148"
             style="fill:none;stroke:#000000;stroke-width:1;stroke-linecap:butt;stroke-linejoin:miter;stroke-miterlimit:10;stroke-dasharray:none;stroke-opacity:1"
             d="M 680,120 V 90" /><path
             inkscape:connector-curvature="0"
             id="path150"
             style="fill:none;stroke:#000000;stroke-width:1;stroke-linecap:butt;stroke-linejoin:miter;stroke-miterlimit:10;stroke-dasharray:none;stroke-opacity:1"
             d="M 790,90 H 760" /><path
             inkscape:connector-curvature="0"
             id="path152"
             style="fill:#e6e6e6;fill-opacity:1;fill-rule:nonzero;stroke:none"
             d="m 810,90 c -6e-5,0.656609 -0.0641,1.3069 -0.1922,1.95089 -0.12811,0.643989 -0.31781,1.269302 -0.56909,1.875923 -0.25134,0.606636 -0.55939,1.182922 -0.92413,1.728874 -0.36481,0.545952 -0.77936,1.051079 -1.2436,1.515373 -0.46429,0.464287 -0.96942,0.87883 -1.51538,1.243614 -0.54596,0.3648 -1.12225,0.672837 -1.72888,0.924111 -0.60663,0.251266 -1.23193,0.440948 -1.87591,0.569053 C 801.30682,99.935944 800.65656,99.999992 800,100 c -0.65668,-8e-6 -1.30701,-0.06406 -1.95099,-0.192162 -0.64398,-0.128105 -1.26929,-0.317787 -1.87591,-0.569061 -0.60663,-0.251274 -1.18293,-0.559311 -1.72895,-0.924103 -0.54596,-0.364784 -1.05102,-0.779327 -1.51532,-1.243614 -0.46429,-0.464294 -0.87884,-0.969414 -1.24365,-1.515365 -0.36481,-0.545952 -0.67285,-1.122239 -0.92413,-1.728875 -0.25128,-0.60662 -0.44092,-1.231933 -0.56903,-1.87593 C 790.06396,91.3069 789.99994,90.656609 790,90 c -6e-5,-0.656609 0.064,-1.306915 0.19202,-1.950912 0.12811,-0.64399 0.31775,-1.269303 0.56903,-1.875939 0.25128,-0.606621 0.55926,-1.182907 0.92407,-1.728859 0.36481,-0.545952 0.77942,-1.051071 1.24371,-1.515365 0.4643,-0.464295 0.96942,-0.878838 1.51538,-1.243638 0.54596,-0.364791 1.12226,-0.672821 1.72889,-0.924095 0.60662,-0.251274 1.23193,-0.440956 1.87591,-0.569053 C 798.69299,80.064049 799.34332,80 800,80 c 0.65656,0 1.30682,0.06405 1.95081,0.192139 0.64398,0.128097 1.26928,0.317779 1.87591,0.569053 0.60663,0.251274 1.18292,0.559304 1.72888,0.924095 0.54596,0.3648 1.05109,0.779343 1.51538,1.243638 0.46424,0.464294 0.87879,0.969413 1.2436,1.515365 0.36474,0.545952 0.67279,1.122238 0.92413,1.728859 0.25128,0.606636 0.44098,1.231949 0.56909,1.875939 C 809.93591,88.693085 809.99994,89.343391 810,90 Z" /><path
             inkscape:connector-curvature="0"
             id="path154"
             style="fill:none;stroke:#000000;stroke-width:1;stroke-linecap:butt;stroke-linejoin:miter;stroke-miterlimit:10;stroke-dasharray:none;stroke-opacity:1"
             d="m 810,90 c -6e-5,0.656609 -0.0641,1.3069 -0.1922,1.95089 -0.12811,0.643989 -0.31781,1.269302 -0.56909,1.875923 -0.25134,0.606636 -0.55939,1.182922 -0.92413,1.728874 -0.36481,0.545952 -0.77936,1.051079 -1.2436,1.515373 -0.46429,0.464287 -0.96942,0.87883 -1.51538,1.243614 -0.54596,0.3648 -1.12225,0.672837 -1.72888,0.924111 -0.60663,0.251266 -1.23193,0.440948 -1.87591,0.569053 C 801.30682,99.935944 800.65656,99.999992 800,100 c -0.65668,-8e-6 -1.30701,-0.06406 -1.95099,-0.192162 -0.64398,-0.128105 -1.26929,-0.317787 -1.87591,-0.569061 -0.60663,-0.251274 -1.18293,-0.559311 -1.72895,-0.924103 -0.54596,-0.364784 -1.05102,-0.779327 -1.51532,-1.243614 -0.46429,-0.464294 -0.87884,-0.969414 -1.24365,-1.515365 -0.36481,-0.545952 -0.67285,-1.122239 -0.92413,-1.728875 -0.25128,-0.60662 -0.44092,-1.231933 -0.56903,-1.87593 C 790.06396,91.3069 789.99994,90.656609 790,90 c -6e-5,-0.656609 0.064,-1.306915 0.19202,-1.950912 0.12811,-0.64399 0.31775,-1.269303 0.56903,-1.875939 0.25128,-0.606621 0.55926,-1.182907 0.92407,-1.728859 0.36481,-0.545952 0.77942,-1.051071 1.24371,-1.515365 0.4643,-0.464295 0.96942,-0.878838 1.51538,-1.243638 0.54596,-0.364791 1.12226,-0.672821 1.72889,-0.924095 0.60662,-0.251274 1.23193,-0.440956 1.87591,-0.569053 C 798.69299,80.064049 799.34332,80 800,80 c 0.65656,0 1.30682,0.06405 1.95081,0.192139 0.64398,0.128097 1.26928,0.317779 1.87591,0.569053 0.60663,0.251274 1.18292,0.559304 1.72888,0.924095 0.54596,0.3648 1.05109,0.779343 1.51538,1.243638 0.46424,0.464294 0.87879,0.969413 1.2436,1.515365 0.36474,0.545952 0.67279,1.122238 0.92413,1.728859 0.25128,0.606636 0.44098,1.231949 0.56909,1.875939 C 809.93591,88.693085 809.99994,89.343391 810,90 Z" /><path
             inkscape:connector-curvature="0"
             id="path156"
             style="fill:#ffffff;fill-opacity:1;fill-rule:nonzero;stroke:none"
             d="m 740,90 c -6e-5,1.313217 -0.12817,2.613815 -0.3844,3.901802 -0.25616,1.287987 -0.63556,2.538605 -1.13806,3.751854 -0.5025,1.213249 -1.11859,2.365834 -1.84821,3.457734 -0.72955,1.0919 -1.55865,2.10215 -2.48724,3.03074 -0.92859,0.92858 -1.93884,1.75767 -3.03076,2.48725 -1.09192,0.72959 -2.24451,1.34566 -3.45777,1.8482 -1.21325,0.50255 -2.46386,0.88192 -3.75177,1.13811 -1.28802,0.2562 -2.58862,0.3843 -3.90179,0.38431 -1.31323,-1e-5 -2.61383,-0.12811 -3.90186,-0.38431 -1.28796,-0.2562 -2.53857,-0.63557 -3.75189,-1.13812 -1.21325,-0.50255 -2.36584,-1.11862 -3.4577,-1.84819 -1.09192,-0.72958 -2.10217,-1.55867 -3.03076,-2.48725 -0.92859,-0.92859 -1.75769,-1.93884 -2.48725,-3.03074 -0.72955,-1.0919 -1.34564,-2.244485 -1.8482,-3.457734 -0.5025,-1.213249 -0.8819,-2.463875 -1.13812,-3.751862 C 700.12805,92.613815 699.99994,91.313217 700,90 c -6e-5,-1.313225 0.12805,-2.613831 0.38422,-3.901817 0.25622,-1.287987 0.63562,-2.538605 1.13812,-3.75187 0.50256,-1.213256 1.11865,-2.365837 1.8482,-3.457733 0.72956,-1.091896 1.55866,-2.102142 2.48725,-3.030723 0.92859,-0.928589 1.93884,-1.757675 3.03076,-2.487259 1.09186,-0.729592 2.24445,-1.345658 3.4577,-1.848198 1.21332,-0.502541 2.46393,-0.881912 3.75189,-1.138107 C 717.38617,70.128098 718.68677,70 720,70 c 1.31317,0 2.61377,0.128098 3.90173,0.384293 1.28797,0.256195 2.53858,0.635566 3.75183,1.138107 1.21326,0.50254 2.36585,1.118606 3.45777,1.848198 1.09192,0.729584 2.10217,1.55867 3.03076,2.487259 0.92859,0.928581 1.75769,1.938827 2.48724,3.030723 0.72962,1.091896 1.34571,2.244477 1.84821,3.457733 0.5025,1.213265 0.8819,2.463883 1.13806,3.75187 C 739.87183,87.386169 739.99994,88.686775 740,90 Z" /><path
             inkscape:connector-curvature="0"
             id="path158"
             style="fill:none;stroke:#000000;stroke-width:1;stroke-linecap:butt;stroke-linejoin:miter;stroke-miterlimit:10;stroke-dasharray:none;stroke-opacity:1"
             d="m 740,90 c -6e-5,1.313217 -0.12817,2.613815 -0.3844,3.901802 -0.25616,1.287987 -0.63556,2.538605 -1.13806,3.751854 -0.5025,1.213249 -1.11859,2.365834 -1.84821,3.457734 -0.72955,1.0919 -1.55865,2.10215 -2.48724,3.03074 -0.92859,0.92858 -1.93884,1.75767 -3.03076,2.48725 -1.09192,0.72959 -2.24451,1.34566 -3.45777,1.8482 -1.21325,0.50255 -2.46386,0.88192 -3.75177,1.13811 -1.28802,0.2562 -2.58862,0.3843 -3.90179,0.38431 -1.31323,-1e-5 -2.61383,-0.12811 -3.90186,-0.38431 -1.28796,-0.2562 -2.53857,-0.63557 -3.75189,-1.13812 -1.21325,-0.50255 -2.36584,-1.11862 -3.4577,-1.84819 -1.09192,-0.72958 -2.10217,-1.55867 -3.03076,-2.48725 -0.92859,-0.92859 -1.75769,-1.93884 -2.48725,-3.03074 -0.72955,-1.0919 -1.34564,-2.244485 -1.8482,-3.457734 -0.5025,-1.213249 -0.8819,-2.463875 -1.13812,-3.751862 C 700.12805,92.613815 699.99994,91.313217 700,90 c -6e-5,-1.313225 0.12805,-2.613831 0.38422,-3.901817 0.25622,-1.287987 0.63562,-2.538605 1.13812,-3.75187 0.50256,-1.213256 1.11865,-2.365837 1.8482,-3.457733 0.72956,-1.091896 1.55866,-2.102142 2.48725,-3.030723 0.92859,-0.928589 1.93884,-1.757675 3.03076,-2.487259 1.09186,-0.729592 2.24445,-1.345658 3.4577,-1.848198 1.21332,-0.502541 2.46393,-0.881912 3.75189,-1.138107 C 717.38617,70.128098 718.68677,70 720,70 c 1.31317,0 2.61377,0.128098 3.90173,0.384293 1.28797,0.256195 2.53858,0.635566 3.75183,1.138107 1.21326,0.50254 2.36585,1.118606 3.45777,1.848198 1.09192,0.729584 2.10217,1.55867 3.03076,2.487259 0.92859,0.928581 1.75769,1.938827 2.48724,3.030723 0.72962,1.091896 1.34571,2.244477 1.84821,3.457733 0.5025,1.213265 0.8819,2.463883 1.13806,3.75187 C 739.87183,87.386169 739.99994,88.686775 740,90 Z" /><path
             inkscape:connector-curvature="0"
             id="path160"
             style="fill:none;stroke:#000000;stroke-width:1;stroke-linecap:butt;stroke-linejoin:miter;stroke-miterlimit:10;stroke-dasharray:none;stroke-opacity:1"
             d="m 760,90 c -6e-5,1.313217 -0.12817,2.613815 -0.38434,3.901802 -0.25622,1.287987 -0.63562,2.538605 -1.13812,3.751854 -0.50256,1.213249 -1.11865,2.365834 -1.84827,3.457734 -0.72955,1.0919 -1.55865,2.10215 -2.48718,3.03074 -0.92859,0.92858 -1.93884,1.75767 -3.03076,2.48725 -1.09192,0.72959 -2.24451,1.34566 -3.45777,1.8482 -1.21325,0.50255 -2.46386,0.88192 -3.75183,1.13811 -1.28796,0.2562 -2.58856,0.3843 -3.90173,0.38431 -1.31329,-1e-5 -2.61389,-0.12811 -3.90192,-0.38431 -1.28796,-0.2562 -2.53857,-0.63557 -3.75183,-1.13812 -1.21325,-0.50255 -2.36584,-1.11862 -3.4577,-1.84819 -1.09186,-0.72958 -2.10211,-1.55867 -3.0307,-2.48725 -0.92859,-0.92859 -1.75769,-1.93884 -2.48731,-3.03074 -0.72955,-1.0919 -1.34564,-2.244485 -1.8482,-3.457734 -0.5025,-1.213249 -0.8819,-2.463875 -1.13812,-3.751862 C 720.12805,92.613815 720,91.313217 720,90 c 0,-1.313225 0.12811,-2.613831 0.38428,-3.901817 0.25616,-1.287987 0.63556,-2.538605 1.13812,-3.75187 0.5025,-1.213256 1.11859,-2.365837 1.84814,-3.457733 0.72962,-1.091896 1.55872,-2.102142 2.48731,-3.030723 0.92859,-0.928589 1.93884,-1.757675 3.0307,-2.487259 1.09186,-0.729592 2.24445,-1.345658 3.4577,-1.848198 1.21326,-0.502541 2.46387,-0.881912 3.75189,-1.138107 C 737.38611,70.128098 738.68671,70 740,70 c 1.31317,0 2.61377,0.128098 3.90173,0.384293 1.28797,0.256195 2.53858,0.635566 3.75183,1.138107 1.21326,0.50254 2.36585,1.118606 3.45777,1.848198 1.09192,0.729584 2.10217,1.55867 3.03076,2.487259 0.92853,0.928581 1.75763,1.938827 2.48718,3.030723 0.72962,1.091896 1.34571,2.244477 1.84827,3.457733 0.5025,1.213265 0.8819,2.463883 1.13812,3.75187 C 759.87183,87.386169 759.99994,88.686775 760,90 Z" /><path
             inkscape:connector-curvature="0"
             id="path162"
             style="fill:none;stroke:#000000;stroke-width:1;stroke-linecap:butt;stroke-linejoin:miter;stroke-miterlimit:10;stroke-dasharray:none;stroke-opacity:1"
             d="M 760,120 704.5,64.5" /><path
             inkscape:connector-curvature="0"
             id="path164"
             style="fill:#000000;fill-opacity:1;fill-rule:nonzero;stroke:none"
             d="M 700.78998,60.790001 708.21997,63.27 704.5,64.5 l -1.22998,3.720001 z" /><path
             inkscape:connector-curvature="0"
             id="path166"
             style="fill:none;stroke:#000000;stroke-width:1;stroke-linecap:butt;stroke-linejoin:miter;stroke-miterlimit:10;stroke-dasharray:none;stroke-opacity:1"
             d="M 700.78998,60.790001 708.21997,63.27 704.5,64.5 l -1.22998,3.720001 z" /><path
             inkscape:connector-curvature="0"
             id="path168"
             style="fill:none;stroke:#000000;stroke-width:1;stroke-linecap:butt;stroke-linejoin:miter;stroke-miterlimit:10;stroke-dasharray:none;stroke-opacity:1"
             d="M 680,259.85999 679.85999,240" /><path
             inkscape:connector-curvature="0"
             id="path170"
             style="fill:none;stroke:#000000;stroke-width:1;stroke-linecap:butt;stroke-linejoin:miter;stroke-miterlimit:10;stroke-dasharray:none;stroke-opacity:1"
             d="m 670,259.85999 h 20" /><path
             inkscape:connector-curvature="0"
             id="path172"
             style="fill:none;stroke:#000000;stroke-width:1;stroke-linecap:butt;stroke-linejoin:miter;stroke-miterlimit:10;stroke-dasharray:none;stroke-opacity:1"
             d="m 675,269.85999 h 7.5 c 5,0 5,0 0,0 H 675" /></g><g
           transform="matrix(2.9991949,0,0,2.9991949,2384.3599,302.91867)"
           id="g174"><text
             id="text178"
             style="font-variant:normal;font-weight:normal;font-size:18.554px;font-family:'Cambria Math';-inkscape-font-specification:CambriaMath;writing-mode:lr-tb;fill:#000000;fill-opacity:1;fill-rule:nonzero;stroke:none"
             transform="matrix(0.9701425,0,-0.24253563,0.9701425,0.015625,17)"><tspan
               id="tspan176"
               y="0"
               x="0">2</tspan></text></g><g
           transform="matrix(2.9991949,0,0,2.9991949,1691.5459,296.92029)"
           id="g180"><text
             id="text184"
             style="font-variant:normal;font-weight:normal;font-size:18.554px;font-family:'Cambria Math';-inkscape-font-specification:CambriaMath;writing-mode:lr-tb;fill:#000000;fill-opacity:1;fill-rule:nonzero;stroke:none"
             transform="matrix(0.9701425,0,-0.24253563,0.9701425,0.515625,17)"><tspan
               id="tspan182"
               y="0"
               x="0">r</tspan></text><text
             id="text188"
             style="font-variant:normal;font-weight:normal;font-size:15.4616px;font-family:'Cambria Math';-inkscape-font-specification:CambriaMath;writing-mode:lr-tb;fill:#000000;fill-opacity:1;fill-rule:nonzero;stroke:none"
             transform="matrix(0.9701425,0,-0.24253563,0.9701425,7.953125,21)"><tspan
               id="tspan186"
               y="0"
               x="0">2</tspan></text><text
             id="text192"
             style="font-variant:normal;font-weight:normal;font-size:18.554px;font-family:'Cambria Math';-inkscape-font-specification:CambriaMath;writing-mode:lr-tb;fill:#000000;fill-opacity:1;fill-rule:nonzero;stroke:none"
             transform="matrix(0.9701425,0,-0.24253563,0.9701425,16.25,17)"><tspan
               id="tspan190"
               sodipodi:role="line"
               y="0"
               x="0 13.861124 18.798584">+jx</tspan></text><text
             id="text196"
             style="font-variant:normal;font-weight:normal;font-size:15.4616px;font-family:'Cambria Math';-inkscape-font-specification:CambriaMath;writing-mode:lr-tb;fill:#000000;fill-opacity:1;fill-rule:nonzero;stroke:none"
             transform="matrix(0.9701425,0,-0.24253563,0.9701425,43.1875,21)"><tspan
               id="tspan194"
               y="0"
               x="0">2</tspan></text></g><g
           transform="matrix(2.9991949,0,0,2.9991949,671.81964,791.78741)"
           id="g198"><text
             id="text202"
             style="font-variant:normal;font-weight:normal;font-size:18.554px;font-family:'Cambria Math';-inkscape-font-specification:CambriaMath;writing-mode:lr-tb;fill:#000000;fill-opacity:1;fill-rule:nonzero;stroke:none"
             transform="matrix(0.9701425,0,-0.24253563,0.9701425,0.71875,17)"><tspan
               id="tspan200"
               y="0"
               x="0">g</tspan></text><text
             id="text206"
             style="font-variant:normal;font-weight:normal;font-size:15.4616px;font-family:'Cambria Math';-inkscape-font-specification:CambriaMath;writing-mode:lr-tb;fill:#000000;fill-opacity:1;fill-rule:nonzero;stroke:none"
             transform="matrix(0.9701425,0,-0.24253563,0.9701425,9.609375,21)"><tspan
               id="tspan204"
               y="0"
               x="0">1</tspan></text><text
             id="text210"
             style="font-variant:normal;font-weight:normal;font-size:18.554px;font-family:'Cambria Math';-inkscape-font-specification:CambriaMath;writing-mode:lr-tb;fill:#000000;fill-opacity:1;fill-rule:nonzero;stroke:none"
             transform="matrix(0.9701425,0,-0.24253563,0.9701425,17.90625,17)"><tspan
               id="tspan208"
               sodipodi:role="line"
               y="0"
               x="0 13.861124 18.798584">+jb</tspan></text><text
             id="text214"
             style="font-variant:normal;font-weight:normal;font-size:15.4616px;font-family:'Cambria Math';-inkscape-font-specification:CambriaMath;writing-mode:lr-tb;fill:#000000;fill-opacity:1;fill-rule:nonzero;stroke:none"
             transform="matrix(0.9701425,0,-0.24253563,0.9701425,45.984375,21)"><tspan
               id="tspan212"
               y="0"
               x="0">1</tspan></text></g><g
           transform="matrix(2.9991949,0,0,2.9991949,2120.4307,380.89774)"
           id="g216"><text
             id="text220"
             style="font-variant:normal;font-weight:normal;font-size:18.554px;font-family:'Cambria Math';-inkscape-font-specification:CambriaMath;writing-mode:lr-tb;fill:#000000;fill-opacity:1;fill-rule:nonzero;stroke:none"
             transform="matrix(0.9701425,0,-0.24253563,0.9701425,0.71875,21)"><tspan
               id="tspan218"
               y="0"
               x="0">ρ</tspan></text><text
             id="text224"
             style="font-variant:normal;font-weight:normal;font-size:15.4616px;font-family:'Cambria Math';-inkscape-font-specification:CambriaMath;writing-mode:lr-tb;fill:#000000;fill-opacity:1;fill-rule:nonzero;stroke:none"
             transform="matrix(0.9701425,0,-0.24253563,0.9701425,10.296875,25)"><tspan
               id="tspan222"
               y="0"
               x="0">2</tspan></text><text
             id="text228"
             style="font-variant:normal;font-weight:normal;font-size:18.554px;font-family:'Cambria Math';-inkscape-font-specification:CambriaMath;writing-mode:lr-tb;fill:#000000;fill-opacity:1;fill-rule:nonzero;stroke:none"
             transform="matrix(0.9701425,0,-0.24253563,0.9701425,18.59375,21)"><tspan
               id="tspan226"
               y="0"
               x="0">e</tspan></text><text
             id="text232"
             style="font-variant:normal;font-weight:normal;font-size:15.4616px;font-family:'Cambria Math';-inkscape-font-specification:CambriaMath;writing-mode:lr-tb;fill:#000000;fill-opacity:1;fill-rule:nonzero;stroke:none"
             transform="matrix(0.9701425,0,-0.24253563,0.9701425,27.359375,14)"><tspan
               id="tspan230"
               y="0"
               x="0">j</tspan></text><text
             id="text236"
             style="font-variant:normal;font-weight:normal;font-size:15.4616px;font-family:'Cambria Math';-inkscape-font-specification:CambriaMath;writing-mode:lr-tb;fill:#000000;fill-opacity:1;fill-rule:nonzero;stroke:none"
             transform="matrix(0.9701425,0,-0.24253563,0.9701425,31.34375,14)"><tspan
               id="tspan234"
               sodipodi:role="line"
               y="0"
               x="0 8.8783674">α2</tspan></text></g><g
           transform="matrix(2.9991949,0,0,2.9991949,1781.5217,626.83173)"
           id="g238"><text
             id="text242"
             style="font-variant:normal;font-weight:normal;font-size:18.554px;font-family:'Cambria Math';-inkscape-font-specification:CambriaMath;writing-mode:lr-tb;fill:#000000;fill-opacity:1;fill-rule:nonzero;stroke:none"
             transform="matrix(0.9701425,0,-0.24253563,0.9701425,0.71875,17)"><tspan
               id="tspan240"
               y="0"
               x="0">g</tspan></text><text
             id="text246"
             style="font-variant:normal;font-weight:normal;font-size:15.4616px;font-family:'Cambria Math';-inkscape-font-specification:CambriaMath;writing-mode:lr-tb;fill:#000000;fill-opacity:1;fill-rule:nonzero;stroke:none"
             transform="matrix(0.9701425,0,-0.24253563,0.9701425,9.609375,21)"><tspan
               id="tspan244"
               y="0"
               x="0">2</tspan></text><text
             id="text250"
             style="font-variant:normal;font-weight:normal;font-size:18.554px;font-family:'Cambria Math';-inkscape-font-specification:CambriaMath;writing-mode:lr-tb;fill:#000000;fill-opacity:1;fill-rule:nonzero;stroke:none"
             transform="matrix(0.9701425,0,-0.24253563,0.9701425,17.90625,17)"><tspan
               id="tspan248"
               sodipodi:role="line"
               y="0"
               x="0 13.861124 18.798584">+jb</tspan></text><text
             id="text254"
             style="font-variant:normal;font-weight:normal;font-size:15.4616px;font-family:'Cambria Math';-inkscape-font-specification:CambriaMath;writing-mode:lr-tb;fill:#000000;fill-opacity:1;fill-rule:nonzero;stroke:none"
             transform="matrix(0.9701425,0,-0.24253563,0.9701425,45.984375,21)"><tspan
               id="tspan252"
               y="0"
               x="0">2</tspan></text></g><g
           transform="matrix(2.9991949,0,0,2.9991949,1796.5177,1247.665)"
           id="g256"><text
             id="text260"
             style="font-variant:normal;font-weight:normal;font-size:18.554px;font-family:'Cambria Math';-inkscape-font-specification:CambriaMath;writing-mode:lr-tb;fill:#000000;fill-opacity:1;fill-rule:nonzero;stroke:none"
             transform="matrix(0.9701425,0,-0.24253563,0.9701425,0.71875,17)"><tspan
               id="tspan258"
               y="0"
               x="0">g</tspan></text><text
             id="text264"
             style="font-variant:normal;font-weight:normal;font-size:15.4616px;font-family:'Cambria Math';-inkscape-font-specification:CambriaMath;writing-mode:lr-tb;fill:#000000;fill-opacity:1;fill-rule:nonzero;stroke:none"
             transform="matrix(0.9701425,0,-0.24253563,0.9701425,9.609375,21)"><tspan
               id="tspan262"
               y="0"
               x="0">3</tspan></text><text
             id="text268"
             style="font-variant:normal;font-weight:normal;font-size:18.554px;font-family:'Cambria Math';-inkscape-font-specification:CambriaMath;writing-mode:lr-tb;fill:#000000;fill-opacity:1;fill-rule:nonzero;stroke:none"
             transform="matrix(0.9701425,0,-0.24253563,0.9701425,17.90625,17)"><tspan
               id="tspan266"
               sodipodi:role="line"
               y="0"
               x="0 13.861124 18.798584">+jb</tspan></text><text
             id="text272"
             style="font-variant:normal;font-weight:normal;font-size:15.4616px;font-family:'Cambria Math';-inkscape-font-specification:CambriaMath;writing-mode:lr-tb;fill:#000000;fill-opacity:1;fill-rule:nonzero;stroke:none"
             transform="matrix(0.9701425,0,-0.24253563,0.9701425,45.984375,21)"><tspan
               id="tspan270"
               y="0"
               x="0">3</tspan></text></g><g
           transform="matrix(2.9991949,0,0,2.9991949,1.4995974,1.4995974)"
           id="g274"><path
             inkscape:connector-curvature="0"
             id="path276"
             style="fill:#ffffff;fill-opacity:1;fill-rule:nonzero;stroke:none"
             d="m 230,190 h 120 v 20 H 230 Z" /><path
             inkscape:connector-curvature="0"
             id="path278"
             style="fill:none;stroke:#000000;stroke-width:1;stroke-linecap:butt;stroke-linejoin:miter;stroke-miterlimit:10;stroke-dasharray:none;stroke-opacity:1"
             d="m 230,190 h 120 v 20 H 230 Z" /></g><g
           transform="matrix(0,2.9991949,-2.9991949,0,1471.1051,271.42712)"
           id="g280"><path
             inkscape:connector-curvature="0"
             id="path282"
             style="fill:#ffffff;fill-opacity:1;fill-rule:nonzero;stroke:none"
             d="m 140,280 h 120 v 20 H 140 Z" /><path
             inkscape:connector-curvature="0"
             id="path284"
             style="fill:none;stroke:#000000;stroke-width:1;stroke-linecap:butt;stroke-linejoin:miter;stroke-miterlimit:10;stroke-dasharray:none;stroke-opacity:1"
             d="m 140,280 h 120 v 20 H 140 Z" /></g><g
           transform="matrix(2.9991949,0,0,2.9991949,1.4995974,1.4995974)"
           id="g286"><path
             inkscape:connector-curvature="0"
             id="path288"
             style="fill:none;stroke:#000000;stroke-width:1;stroke-linecap:butt;stroke-linejoin:miter;stroke-miterlimit:10;stroke-dasharray:none;stroke-opacity:1"
             d="m 180,200 h 50" /><path
             inkscape:connector-curvature="0"
             id="path290"
             style="fill:none;stroke:#000000;stroke-width:1;stroke-linecap:butt;stroke-linejoin:miter;stroke-miterlimit:10;stroke-dasharray:none;stroke-opacity:1"
             d="m 350,199.5 50,0.5" /><path
             inkscape:connector-curvature="0"
             id="path292"
             style="fill:none;stroke:#000000;stroke-width:1;stroke-linecap:butt;stroke-linejoin:miter;stroke-miterlimit:10;stroke-dasharray:none;stroke-opacity:1"
             d="M 200,230 V 200" /><path
             inkscape:connector-curvature="0"
             id="path294"
             style="fill:#ffffff;fill-opacity:1;fill-rule:nonzero;stroke:none"
             d="m 160,200 c -2e-5,1.31322 -0.12811,2.6138 -0.38431,3.90178 -0.25621,1.28798 -0.63557,2.5386 -1.13812,3.75186 -0.50255,1.21324 -1.11862,2.36583 -1.84821,3.45773 -0.72958,1.09191 -1.55867,2.10216 -2.48724,3.03075 -0.92859,0.92857 -1.93883,1.75766 -3.03073,2.48724 -1.09191,0.72959 -2.24448,1.34566 -3.45773,1.84821 -1.21326,0.50255 -2.46389,0.88191 -3.75187,1.13812 -1.28798,0.2562 -2.58857,0.38429 -3.90179,0.38431 -1.31323,-2e-5 -2.61385,-0.12811 -3.90183,-0.38432 -1.28797,-0.2562 -2.5386,-0.63558 -3.75186,-1.13813 -1.21325,-0.50254 -2.36583,-1.1186 -3.45773,-1.84819 -1.0919,-0.72958 -2.10214,-1.55867 -3.03072,-2.48724 -0.92859,-0.92859 -1.75768,-1.93884 -2.48726,-3.03076 -0.72959,-1.09191 -1.34566,-2.24448 -1.84821,-3.45772 -0.50255,-1.21326 -0.88192,-2.46387 -1.13811,-3.75185 C 120.12808,202.61382 119.99999,201.31322 120,200 c -1e-5,-1.31322 0.12808,-2.61383 0.38428,-3.90181 0.25619,-1.28799 0.63556,-2.53862 1.13811,-3.75188 0.50255,-1.21324 1.11862,-2.36583 1.8482,-3.45773 0.72959,-1.0919 1.55868,-2.10214 2.48727,-3.03072 0.92858,-0.9286 1.93882,-1.75769 3.03072,-2.48727 1.0919,-0.72958 2.24448,-1.34564 3.45773,-1.84819 1.21326,-0.50255 2.46389,-0.88191 3.75186,-1.13811 C 137.38615,180.1281 138.68677,180 140,180 c 1.31322,0 2.61381,0.1281 3.90179,0.38429 1.28798,0.2562 2.53861,0.63556 3.75187,1.13811 1.21325,0.50255 2.36582,1.11861 3.45773,1.84819 1.0919,0.72958 2.10214,1.55867 3.03073,2.48727 0.92857,0.92858 1.75766,1.93882 2.48724,3.03072 0.72959,1.0919 1.34566,2.24449 1.84821,3.45773 0.50255,1.21326 0.88191,2.46389 1.13812,3.75188 0.2562,1.28798 0.38429,2.58859 0.38431,3.90181 z" /><path
             inkscape:connector-curvature="0"
             id="path296"
             style="fill:none;stroke:#000000;stroke-width:1;stroke-linecap:butt;stroke-linejoin:miter;stroke-miterlimit:10;stroke-dasharray:none;stroke-opacity:1"
             d="m 160,200 c -2e-5,1.31322 -0.12811,2.6138 -0.38431,3.90178 -0.25621,1.28798 -0.63557,2.5386 -1.13812,3.75186 -0.50255,1.21324 -1.11862,2.36583 -1.84821,3.45773 -0.72958,1.09191 -1.55867,2.10216 -2.48724,3.03075 -0.92859,0.92857 -1.93883,1.75766 -3.03073,2.48724 -1.09191,0.72959 -2.24448,1.34566 -3.45773,1.84821 -1.21326,0.50255 -2.46389,0.88191 -3.75187,1.13812 -1.28798,0.2562 -2.58857,0.38429 -3.90179,0.38431 -1.31323,-2e-5 -2.61385,-0.12811 -3.90183,-0.38432 -1.28797,-0.2562 -2.5386,-0.63558 -3.75186,-1.13813 -1.21325,-0.50254 -2.36583,-1.1186 -3.45773,-1.84819 -1.0919,-0.72958 -2.10214,-1.55867 -3.03072,-2.48724 -0.92859,-0.92859 -1.75768,-1.93884 -2.48726,-3.03076 -0.72959,-1.09191 -1.34566,-2.24448 -1.84821,-3.45772 -0.50255,-1.21326 -0.88192,-2.46387 -1.13811,-3.75185 C 120.12808,202.61382 119.99999,201.31322 120,200 c -1e-5,-1.31322 0.12808,-2.61383 0.38428,-3.90181 0.25619,-1.28799 0.63556,-2.53862 1.13811,-3.75188 0.50255,-1.21324 1.11862,-2.36583 1.8482,-3.45773 0.72959,-1.0919 1.55868,-2.10214 2.48727,-3.03072 0.92858,-0.9286 1.93882,-1.75769 3.03072,-2.48727 1.0919,-0.72958 2.24448,-1.34564 3.45773,-1.84819 1.21326,-0.50255 2.46389,-0.88191 3.75186,-1.13811 C 137.38615,180.1281 138.68677,180 140,180 c 1.31322,0 2.61381,0.1281 3.90179,0.38429 1.28798,0.2562 2.53861,0.63556 3.75187,1.13811 1.21325,0.50255 2.36582,1.11861 3.45773,1.84819 1.0919,0.72958 2.10214,1.55867 3.03073,2.48727 0.92857,0.92858 1.75766,1.93882 2.48724,3.03072 0.72959,1.0919 1.34566,2.24449 1.84821,3.45773 0.50255,1.21326 0.88191,2.46389 1.13812,3.75188 0.2562,1.28798 0.38429,2.58859 0.38431,3.90181 z" /><path
             inkscape:connector-curvature="0"
             id="path298"
             style="fill:none;stroke:#000000;stroke-width:1;stroke-linecap:butt;stroke-linejoin:miter;stroke-miterlimit:10;stroke-dasharray:none;stroke-opacity:1"
             d="m 180,200 c 0,1.31322 -0.1281,2.6138 -0.38429,3.90178 -0.25621,1.28798 -0.63558,2.5386 -1.13813,3.75186 -0.50254,1.21324 -1.1186,2.36583 -1.84819,3.45773 -0.72958,1.09191 -1.55867,2.10216 -2.48725,3.03075 -0.92859,0.92857 -1.93885,1.75766 -3.03075,2.48724 -1.0919,0.72959 -2.24449,1.34566 -3.45773,1.84821 -1.21326,0.50255 -2.46387,0.88191 -3.75185,1.13812 -1.28798,0.2562 -2.58859,0.38429 -3.90181,0.38431 -1.31322,-2e-5 -2.61383,-0.12811 -3.90181,-0.38432 -1.28799,-0.2562 -2.53862,-0.63558 -3.75188,-1.13813 -1.21327,-0.50254 -2.36584,-1.1186 -3.45773,-1.84819 -1.0919,-0.72958 -2.10216,-1.55867 -3.03073,-2.48724 -0.92859,-0.92859 -1.75768,-1.93884 -2.48726,-3.03076 -0.7296,-1.09191 -1.34566,-2.24448 -1.8482,-3.45772 -0.50255,-1.21326 -0.88192,-2.46387 -1.13811,-3.75185 C 140.1281,202.61382 140,201.31322 140,200 c 0,-1.31322 0.1281,-2.61383 0.38428,-3.90181 0.25619,-1.28799 0.63556,-2.53862 1.13811,-3.75188 0.50254,-1.21324 1.1186,-2.36583 1.8482,-3.45773 0.72958,-1.0919 1.55867,-2.10214 2.48726,-3.03072 0.92857,-0.9286 1.93883,-1.75769 3.03073,-2.48727 1.09189,-0.72958 2.24446,-1.34564 3.45773,-1.84819 1.21326,-0.50255 2.46389,-0.88191 3.75188,-1.13811 C 157.38617,180.1281 158.68678,180 160,180 c 1.31322,0 2.61383,0.1281 3.90181,0.38429 1.28798,0.2562 2.53859,0.63556 3.75185,1.13811 1.21324,0.50255 2.36583,1.11861 3.45773,1.84819 1.0919,0.72958 2.10216,1.55867 3.03075,2.48727 0.92858,0.92858 1.75767,1.93882 2.48724,3.03072 0.72958,1.0919 1.34564,2.24449 1.84819,3.45773 0.50255,1.21326 0.88193,2.46389 1.13814,3.75188 C 179.8719,197.38617 180,198.68678 180,200 Z" /><path
             inkscape:connector-curvature="0"
             id="path300"
             style="fill:none;stroke:#000000;stroke-width:1;stroke-linecap:butt;stroke-linejoin:miter;stroke-miterlimit:10;stroke-dasharray:none;stroke-opacity:1"
             d="m 120,231 55.53,-56.46001" /><path
             inkscape:connector-curvature="0"
             id="path302"
             style="fill:#000000;fill-opacity:1;fill-rule:nonzero;stroke:none"
             d="m 179.22,170.8 -2.42,7.44001 -1.27,-3.70002 -3.72,-1.20999 z" /><path
             inkscape:connector-curvature="0"
             id="path304"
             style="fill:none;stroke:#000000;stroke-width:1;stroke-linecap:butt;stroke-linejoin:miter;stroke-miterlimit:10;stroke-dasharray:none;stroke-opacity:1"
             d="m 179.22,170.8 -2.42,7.44001 -1.27,-3.70002 -3.72,-1.20999 z" /><path
             inkscape:connector-curvature="0"
             id="path306"
             style="fill:none;stroke:#000000;stroke-width:1;stroke-linecap:butt;stroke-linejoin:miter;stroke-miterlimit:10;stroke-dasharray:none;stroke-opacity:1"
             d="m 90,200 h 30" /><path
             inkscape:connector-curvature="0"
             id="path308"
             style="fill:#e6e6e6;fill-opacity:1;fill-rule:nonzero;stroke:none"
             d="m 90,200 c 0,0.65659 -0.06405,1.30687 -0.192146,1.95087 -0.128105,0.64399 -0.317787,1.2693 -0.569062,1.87593 -0.251274,0.60664 -0.559303,1.18292 -0.924095,1.72886 -0.364792,0.54598 -0.779335,1.05111 -1.243629,1.5154 -0.464295,0.46428 -0.969422,0.87881 -1.515373,1.24361 -0.545952,0.36479 -1.122246,0.67283 -1.728867,0.9241 -0.606628,0.25128 -1.231934,0.44098 -1.875923,0.56908 C 81.306915,209.93594 80.656609,210 80,210 c -0.656609,0 -1.306915,-0.0641 -1.950905,-0.19215 -0.643997,-0.1281 -1.26931,-0.3178 -1.875938,-0.56908 -0.606636,-0.25127 -1.182923,-0.55931 -1.728867,-0.9241 -0.545952,-0.3648 -1.051079,-0.77933 -1.515365,-1.24361 -0.464295,-0.46429 -0.878838,-0.96942 -1.24363,-1.51538 -0.364799,-0.54594 -0.672829,-1.12224 -0.924103,-1.72887 -0.251274,-0.60663 -0.440956,-1.23193 -0.569053,-1.87593 C 70.064049,201.30688 70,200.65659 70,200 c 0,-0.65663 0.06405,-1.30693 0.192139,-1.95093 0.128097,-0.64399 0.317779,-1.2693 0.569053,-1.87593 0.251274,-0.60663 0.559304,-1.18292 0.924103,-1.72888 0.364792,-0.54594 0.779335,-1.05106 1.24363,-1.51535 0.464286,-0.4643 0.969413,-0.87885 1.515365,-1.24364 0.545944,-0.36477 1.122231,-0.6728 1.728867,-0.92407 0.606628,-0.25127 1.231941,-0.44096 1.875938,-0.56906 C 78.693085,190.06404 79.343391,190 80,190 c 0.656609,0 1.306915,0.064 1.950905,0.19214 0.643989,0.1281 1.269295,0.31778 1.875923,0.56904 0.606621,0.25127 1.182915,0.5593 1.728867,0.92409 0.545951,0.36479 1.051078,0.77934 1.515373,1.24364 0.464294,0.46429 0.878837,0.96942 1.243622,1.51536 0.364792,0.54595 0.672821,1.12224 0.924095,1.72887 0.251274,0.60663 0.440964,1.23194 0.569069,1.87593 C 89.935951,198.69307 90,199.34337 90,200 Z" /><path
             inkscape:connector-curvature="0"
             id="path310"
             style="fill:none;stroke:#000000;stroke-width:1;stroke-linecap:butt;stroke-linejoin:miter;stroke-miterlimit:10;stroke-dasharray:none;stroke-opacity:1"
             d="m 90,200 c 0,0.65659 -0.06405,1.30687 -0.192146,1.95087 -0.128105,0.64399 -0.317787,1.2693 -0.569062,1.87593 -0.251274,0.60664 -0.559303,1.18292 -0.924095,1.72886 -0.364792,0.54598 -0.779335,1.05111 -1.243629,1.5154 -0.464295,0.46428 -0.969422,0.87881 -1.515373,1.24361 -0.545952,0.36479 -1.122246,0.67283 -1.728867,0.9241 -0.606628,0.25128 -1.231934,0.44098 -1.875923,0.56908 C 81.306915,209.93594 80.656609,210 80,210 c -0.656609,0 -1.306915,-0.0641 -1.950905,-0.19215 -0.643997,-0.1281 -1.26931,-0.3178 -1.875938,-0.56908 -0.606636,-0.25127 -1.182923,-0.55931 -1.728867,-0.9241 -0.545952,-0.3648 -1.051079,-0.77933 -1.515365,-1.24361 -0.464295,-0.46429 -0.878838,-0.96942 -1.24363,-1.51538 -0.364799,-0.54594 -0.672829,-1.12224 -0.924103,-1.72887 -0.251274,-0.60663 -0.440956,-1.23193 -0.569053,-1.87593 C 70.064049,201.30688 70,200.65659 70,200 c 0,-0.65663 0.06405,-1.30693 0.192139,-1.95093 0.128097,-0.64399 0.317779,-1.2693 0.569053,-1.87593 0.251274,-0.60663 0.559304,-1.18292 0.924103,-1.72888 0.364792,-0.54594 0.779335,-1.05106 1.24363,-1.51535 0.464286,-0.4643 0.969413,-0.87885 1.515365,-1.24364 0.545944,-0.36477 1.122231,-0.6728 1.728867,-0.92407 0.606628,-0.25127 1.231941,-0.44096 1.875938,-0.56906 C 78.693085,190.06404 79.343391,190 80,190 c 0.656609,0 1.306915,0.064 1.950905,0.19214 0.643989,0.1281 1.269295,0.31778 1.875923,0.56904 0.606621,0.25127 1.182915,0.5593 1.728867,0.92409 0.545951,0.36479 1.051078,0.77934 1.515373,1.24364 0.464294,0.46429 0.878837,0.96942 1.243622,1.51536 0.364792,0.54595 0.672821,1.12224 0.924095,1.72887 0.251274,0.60663 0.440964,1.23194 0.569069,1.87593 C 89.935951,198.69307 90,199.34337 90,200 Z" /><path
             inkscape:connector-curvature="0"
             id="path312"
             style="fill:none;stroke:#000000;stroke-width:1;stroke-linecap:butt;stroke-linejoin:miter;stroke-miterlimit:10;stroke-dasharray:none;stroke-opacity:1"
             d="M 200,370 V 350" /><path
             inkscape:connector-curvature="0"
             id="path314"
             style="fill:none;stroke:#000000;stroke-width:1;stroke-linecap:butt;stroke-linejoin:miter;stroke-miterlimit:10;stroke-dasharray:none;stroke-opacity:1"
             d="m 190,370 h 20" /><path
             inkscape:connector-curvature="0"
             id="path316"
             style="fill:none;stroke:#000000;stroke-width:1;stroke-linecap:butt;stroke-linejoin:miter;stroke-miterlimit:10;stroke-dasharray:none;stroke-opacity:1"
             d="m 195,380 h 7.5 c 5,0 5,0 0,0 H 195" /></g><g
           transform="matrix(2.9991949,0,0,2.9991949,224.93962,632.83014)"
           id="g318"><text
             id="text322"
             style="font-variant:normal;font-weight:normal;font-size:18.554px;font-family:'Cambria Math';-inkscape-font-specification:CambriaMath;writing-mode:lr-tb;fill:#000000;fill-opacity:1;fill-rule:nonzero;stroke:none"
             transform="matrix(0.9701425,0,-0.24253563,0.9701425,0.015625,17)"><tspan
               id="tspan320"
               y="0"
               x="0">1</tspan></text></g><g
           transform="matrix(2.9991949,0,0,2.9991949,380.89774,695.81323)"
           id="g324"><text
             id="text328"
             style="font-variant:normal;font-weight:normal;font-size:18.554px;font-family:'Cambria Math';-inkscape-font-specification:CambriaMath;writing-mode:lr-tb;fill:#000000;fill-opacity:1;fill-rule:nonzero;stroke:none"
             transform="matrix(0.9701425,0,-0.24253563,0.9701425,0.71875,21)"><tspan
               id="tspan326"
               y="0"
               x="0">ρ</tspan></text><text
             id="text332"
             style="font-variant:normal;font-weight:normal;font-size:15.4616px;font-family:'Cambria Math';-inkscape-font-specification:CambriaMath;writing-mode:lr-tb;fill:#000000;fill-opacity:1;fill-rule:nonzero;stroke:none"
             transform="matrix(0.9701425,0,-0.24253563,0.9701425,10.296875,25)"><tspan
               id="tspan330"
               y="0"
               x="0">1</tspan></text><text
             id="text336"
             style="font-variant:normal;font-weight:normal;font-size:18.554px;font-family:'Cambria Math';-inkscape-font-specification:CambriaMath;writing-mode:lr-tb;fill:#000000;fill-opacity:1;fill-rule:nonzero;stroke:none"
             transform="matrix(0.9701425,0,-0.24253563,0.9701425,18.59375,21)"><tspan
               id="tspan334"
               y="0"
               x="0">e</tspan></text><text
             id="text340"
             style="font-variant:normal;font-weight:normal;font-size:15.4616px;font-family:'Cambria Math';-inkscape-font-specification:CambriaMath;writing-mode:lr-tb;fill:#000000;fill-opacity:1;fill-rule:nonzero;stroke:none"
             transform="matrix(0.9701425,0,-0.24253563,0.9701425,27.359375,14)"><tspan
               id="tspan338"
               y="0"
               x="0">j</tspan></text><text
             id="text344"
             style="font-variant:normal;font-weight:normal;font-size:15.4616px;font-family:'Cambria Math';-inkscape-font-specification:CambriaMath;writing-mode:lr-tb;fill:#000000;fill-opacity:1;fill-rule:nonzero;stroke:none"
             transform="matrix(0.9701425,0,-0.24253563,0.9701425,31.34375,14)"><tspan
               id="tspan342"
               sodipodi:role="line"
               y="0"
               x="0 8.8783674">α1</tspan></text></g><g
           transform="matrix(2.9991949,0,0,2.9991949,791.78741,626.83173)"
           id="g346"><text
             id="text350"
             style="font-variant:normal;font-weight:normal;font-size:18.554px;font-family:'Cambria Math';-inkscape-font-specification:CambriaMath;writing-mode:lr-tb;fill:#000000;fill-opacity:1;fill-rule:nonzero;stroke:none"
             transform="matrix(0.9701425,0,-0.24253563,0.9701425,0.515625,17)"><tspan
               id="tspan348"
               y="0"
               x="0">r</tspan></text><text
             id="text354"
             style="font-variant:normal;font-weight:normal;font-size:15.4616px;font-family:'Cambria Math';-inkscape-font-specification:CambriaMath;writing-mode:lr-tb;fill:#000000;fill-opacity:1;fill-rule:nonzero;stroke:none"
             transform="matrix(0.9701425,0,-0.24253563,0.9701425,7.953125,21)"><tspan
               id="tspan352"
               y="0"
               x="0">1</tspan></text><text
             id="text358"
             style="font-variant:normal;font-weight:normal;font-size:18.554px;font-family:'Cambria Math';-inkscape-font-specification:CambriaMath;writing-mode:lr-tb;fill:#000000;fill-opacity:1;fill-rule:nonzero;stroke:none"
             transform="matrix(0.9701425,0,-0.24253563,0.9701425,16.25,17)"><tspan
               id="tspan356"
               sodipodi:role="line"
               y="0"
               x="0 13.861124 18.798584">+jx</tspan></text><text
             id="text362"
             style="font-variant:normal;font-weight:normal;font-size:15.4616px;font-family:'Cambria Math';-inkscape-font-specification:CambriaMath;writing-mode:lr-tb;fill:#000000;fill-opacity:1;fill-rule:nonzero;stroke:none"
             transform="matrix(0.9701425,0,-0.24253563,0.9701425,43.1875,21)"><tspan
               id="tspan360"
               y="0"
               x="0">1</tspan></text></g><g
           transform="matrix(2.9991949,0,0,2.9991949,1.4995974,1.4995974)"
           id="g364"><path
             inkscape:connector-curvature="0"
             id="path366"
             style="fill:none;stroke:#000000;stroke-width:1;stroke-linecap:butt;stroke-linejoin:miter;stroke-miterlimit:10;stroke-dasharray:none;stroke-opacity:1"
             d="M 430,200 H 400" /><path
             inkscape:connector-curvature="0"
             id="path368"
             style="fill:#e6e6e6;fill-opacity:1;fill-rule:nonzero;stroke:none"
             d="m 450,200 c 0,0.65659 -0.0641,1.30687 -0.19214,1.95087 -0.12814,0.64399 -0.31784,1.2693 -0.56912,1.87593 -0.25128,0.60664 -0.55933,1.18292 -0.9241,1.72886 -0.36478,0.54598 -0.77933,1.05111 -1.2436,1.5154 -0.46429,0.46428 -0.96942,0.87881 -1.51538,1.24361 -0.54592,0.36479 -1.12222,0.67283 -1.72885,0.9241 -0.60663,0.25128 -1.23193,0.44098 -1.87591,0.56908 C 441.30692,209.93594 440.65662,210 440,210 c -0.65662,0 -1.30692,-0.0641 -1.95093,-0.19215 -0.64398,-0.1281 -1.26928,-0.3178 -1.87591,-0.56908 -0.60663,-0.25127 -1.18293,-0.55931 -1.72892,-0.9241 -0.54592,-0.3648 -1.05105,-0.77933 -1.51535,-1.24361 -0.46429,-0.46429 -0.87884,-0.96942 -1.24365,-1.51538 -0.36477,-0.54594 -0.67282,-1.12224 -0.92407,-1.72887 -0.25128,-0.60663 -0.44098,-1.23193 -0.56906,-1.87593 C 430.06403,201.30688 430,200.65659 430,200 c 0,-0.65663 0.0641,-1.30693 0.19214,-1.95093 0.12808,-0.64399 0.31775,-1.2693 0.56903,-1.87593 0.25125,-0.60663 0.5593,-1.18292 0.92407,-1.72888 0.36481,-0.54594 0.77936,-1.05106 1.24365,-1.51535 0.4643,-0.4643 0.96943,-0.87885 1.51535,-1.24364 0.54593,-0.36477 1.12223,-0.6728 1.72886,-0.92407 0.60665,-0.25127 1.23196,-0.44096 1.87597,-0.56906 C 438.69308,190.06404 439.34338,190 440,190 c 0.65662,0 1.30692,0.064 1.9509,0.19214 0.64398,0.1281 1.26928,0.31778 1.87591,0.56904 0.60663,0.25127 1.18293,0.5593 1.72888,0.92409 0.54593,0.36479 1.05106,0.77934 1.51535,1.24364 0.46427,0.46429 0.87882,0.96942 1.2436,1.51536 0.36477,0.54595 0.67282,1.12224 0.9241,1.72887 0.25128,0.60663 0.44098,1.23194 0.56906,1.87593 0.12814,0.644 0.1922,1.2943 0.1922,1.95093 z" /><path
             inkscape:connector-curvature="0"
             id="path370"
             style="fill:none;stroke:#000000;stroke-width:1;stroke-linecap:butt;stroke-linejoin:miter;stroke-miterlimit:10;stroke-dasharray:none;stroke-opacity:1"
             d="m 450,200 c 0,0.65659 -0.0641,1.30687 -0.19214,1.95087 -0.12814,0.64399 -0.31784,1.2693 -0.56912,1.87593 -0.25128,0.60664 -0.55933,1.18292 -0.9241,1.72886 -0.36478,0.54598 -0.77933,1.05111 -1.2436,1.5154 -0.46429,0.46428 -0.96942,0.87881 -1.51538,1.24361 -0.54592,0.36479 -1.12222,0.67283 -1.72885,0.9241 -0.60663,0.25128 -1.23193,0.44098 -1.87591,0.56908 C 441.30692,209.93594 440.65662,210 440,210 c -0.65662,0 -1.30692,-0.0641 -1.95093,-0.19215 -0.64398,-0.1281 -1.26928,-0.3178 -1.87591,-0.56908 -0.60663,-0.25127 -1.18293,-0.55931 -1.72892,-0.9241 -0.54592,-0.3648 -1.05105,-0.77933 -1.51535,-1.24361 -0.46429,-0.46429 -0.87884,-0.96942 -1.24365,-1.51538 -0.36477,-0.54594 -0.67282,-1.12224 -0.92407,-1.72887 -0.25128,-0.60663 -0.44098,-1.23193 -0.56906,-1.87593 C 430.06403,201.30688 430,200.65659 430,200 c 0,-0.65663 0.0641,-1.30693 0.19214,-1.95093 0.12808,-0.64399 0.31775,-1.2693 0.56903,-1.87593 0.25125,-0.60663 0.5593,-1.18292 0.92407,-1.72888 0.36481,-0.54594 0.77936,-1.05106 1.24365,-1.51535 0.4643,-0.4643 0.96943,-0.87885 1.51535,-1.24364 0.54593,-0.36477 1.12223,-0.6728 1.72886,-0.92407 0.60665,-0.25127 1.23196,-0.44096 1.87597,-0.56906 C 438.69308,190.06404 439.34338,190 440,190 c 0.65662,0 1.30692,0.064 1.9509,0.19214 0.64398,0.1281 1.26928,0.31778 1.87591,0.56904 0.60663,0.25127 1.18293,0.5593 1.72888,0.92409 0.54593,0.36479 1.05106,0.77934 1.51535,1.24364 0.46427,0.46429 0.87882,0.96942 1.2436,1.51536 0.36477,0.54595 0.67282,1.12224 0.9241,1.72887 0.25128,0.60663 0.44098,1.23194 0.56906,1.87593 0.12814,0.644 0.1922,1.2943 0.1922,1.95093 z" /><path
             inkscape:connector-curvature="0"
             id="path372"
             style="fill:none;stroke:#000000;stroke-width:1;stroke-linecap:butt;stroke-linejoin:miter;stroke-miterlimit:10;stroke-dasharray:none;stroke-opacity:1"
             d="m 440,310 h 40" /><path
             inkscape:connector-curvature="0"
             id="path374"
             style="fill:none;stroke:#000000;stroke-width:1;stroke-linecap:butt;stroke-linejoin:miter;stroke-miterlimit:10;stroke-dasharray:none;stroke-opacity:1"
             d="m 440,90 h 40" /><path
             inkscape:connector-curvature="0"
             id="path376"
             style="fill:none;stroke:#000000;stroke-width:1;stroke-linecap:butt;stroke-linejoin:miter;stroke-miterlimit:10;stroke-dasharray:none;stroke-opacity:1"
             d="M 440,310 V 210" /><path
             inkscape:connector-curvature="0"
             id="path378"
             style="fill:none;stroke:#000000;stroke-width:1;stroke-linecap:butt;stroke-linejoin:miter;stroke-miterlimit:10;stroke-dasharray:none;stroke-opacity:1"
             d="M 440,90 V 190" /></g></g></g></g></svg>
