<?xml version="1.0" encoding="utf-8"?>
<!-- Generator: Adobe Illustrator 22.0.1, SVG Export Plug-In . SVG Version: 6.00 Build 0)  -->
<svg version="1.1" id="Layer_1" xmlns="http://www.w3.org/2000/svg" xmlns:xlink="http://www.w3.org/1999/xlink" x="0px" y="0px"
	 viewBox="0 0 498.6 114" style="enable-background:new 0 0 498.6 114;" xml:space="preserve">
<style type="text/css">
	.st0{fill:#FFB259;}
	.st1{fill:#6F2277;}
	.st2{fill:#FD495C;}
	.st3{fill:#009ADE;}
	.st4{fill:#003764;}
</style>
<g>
	<polygon class="st0" points="34.2,45.6 57,34.2 79.8,45.6 79.8,68.4 57,79.8 34.2,68.4"/>
	<polygon class="st1" points="34.2,45.6 57,57 79.8,45.6 79.8,68.4 57,79.8 34.2,68.4"/>
	<polygon class="st2" points="79.8,45.6 79.8,68.4 57,79.8 57,57"/>
	<polygon class="st0" points="68.4,62.7 91.2,51.3 114,62.7 114,85.5 91.2,96.9 68.4,85.5"/>
	<polygon class="st1" points="68.4,62.7 91.2,74.1 114,62.7 114,85.5 91.2,96.9 68.4,85.5"/>
	<polygon class="st2" points="114,62.7 114,85.5 91.2,96.9 91.2,74.1"/>
	<polygon class="st0" points="0,62.7 22.8,51.3 45.6,62.7 45.6,85.5 22.8,96.9 0,85.5"/>
	<polygon class="st1" points="0,62.7 22.8,74.1 45.6,62.7 45.6,85.5 22.8,96.9 0,85.5"/>
	<polygon class="st2" points="45.6,62.7 45.6,85.5 22.8,96.9 22.8,74.1"/>
	<polygon class="st0" points="34.2,79.8 57,68.4 79.8,79.8 79.8,102.6 57,114 34.2,102.6"/>
	<polygon class="st1" points="34.2,79.8 57,91.2 79.8,79.8 79.8,102.6 57,114 34.2,102.6"/>
	<polygon class="st2" points="79.8,79.8 79.8,102.6 57,114 57,91.2"/>
	<polygon class="st0" points="34.2,11.4 57,0 79.8,11.4 79.8,34.2 57,45.6 34.2,34.2"/>
	<polygon class="st1" points="34.2,11.4 57,22.8 79.8,11.4 79.8,34.2 57,45.6 34.2,34.2"/>
	<polygon class="st2" points="79.8,11.4 79.8,34.2 57,45.6 57,22.8"/>
	<polygon class="st0" points="68.4,28.5 91.2,17.1 114,28.5 114,51.3 91.2,62.7 68.4,51.3"/>
	<polygon class="st1" points="68.4,28.5 91.2,39.9 114,28.5 114,51.3 91.2,62.7 68.4,51.3"/>
	<polygon class="st2" points="114,28.5 114,51.3 91.2,62.7 91.2,39.9"/>
	<polygon class="st0" points="0,28.5 22.8,17.1 45.6,28.5 45.6,51.3 22.8,62.7 0,51.3"/>
	<polygon class="st1" points="0,28.5 22.8,39.9 45.6,28.5 45.6,51.3 22.8,62.7 0,51.3"/>
	<polygon class="st2" points="45.6,28.5 45.6,51.3 22.8,62.7 22.8,39.9"/>
</g>
<path class="st0" d="M140.5,87.8v26.1h-9.3V47.7h21.6c6.3,0,11.2,1.8,14.8,5.5s5.4,8.5,5.4,14.5s-1.8,10.9-5.4,14.5
	c-3.6,3.7-8.5,5.5-14.8,5.5h-12.3V87.8z M140.5,80.7h12.3c3.6,0,6.3-1.2,8.2-3.7c1.9-2.4,2.8-5.5,2.8-9.2s-0.9-6.8-2.8-9.3
	c-1.8-2.5-4.6-3.7-8.2-3.7h-12.3V80.7z"/>
<path class="st0" d="M227.5,90c0,7.9-2.1,14-6.4,18.3s-10,6.6-17.1,6.6s-12.7-2.2-16.8-6.6c-4.2-4.4-6.3-10.5-6.3-18.3V71.8
	c0-7.8,2.1-13.9,6.3-18.4c4.2-4.4,9.8-6.6,16.8-6.6c7.1,0,12.9,2.2,17.1,6.6c4.3,4.4,6.4,10.5,6.4,18.4V90z M218.3,71.6
	c0-5.8-1.2-10.1-3.7-13.1s-6-4.5-10.6-4.5c-4.4,0-7.9,1.5-10.2,4.5c-2.4,3-3.6,7.4-3.6,13.1V90c0,5.8,1.2,10.2,3.6,13.2
	c2.4,3,5.8,4.5,10.3,4.5c4.6,0,8.1-1.5,10.6-4.5s3.7-7.4,3.7-13.3V71.6H218.3z"/>
<path class="st0" d="M282.7,94.8h0.3l8.6-47.1h9.7l-13.6,66.2h-8.5l-11.6-47h-0.3l-11.6,47h-8.5l-13.6-66.2h9.8l8.7,47h0.3l11.2-47
	h8.1L282.7,94.8z"/>
<g>
	<polygon class="st3" points="136.8,22.9 136.8,11.6 131.1,11.6 131.1,28.5 148.1,28.5 148.1,22.9 	"/>
	<polygon class="st4" points="159.4,0.3 131.1,0.3 131.1,8.8 136.8,8.8 136.8,6 153.7,6 153.7,22.9 150.9,22.9 150.9,28.5 
		159.4,28.5 	"/>
	<g>
		<path class="st4" d="M166.8,0.6h8.6v20.8h12.4v7.2h-21V0.6z"/>
		<path class="st4" d="M191.5,0.6h21.6v7.2h-13v3.5h11.1v6.6h-11.1v10.6h-8.6V0.6z"/>
	</g>
	<path class="st3" d="M235.3,28.7h-15.6V0.5h15.6v1.8h-13.6V13h12.8v1.8h-12.8v12.1h13.6V28.7z"/>
	<path class="st3" d="M262.5,28.7h-2l-16.9-25h-0.2c0.2,3,0.2,5.2,0.2,6.7v18.2h-1.9V0.5h2l16.9,24.9h0.1c-0.1-2.3-0.2-4.5-0.2-6.6
		V0.5h1.9v28.2H262.5z"/>
	<path class="st3" d="M286.1,28.7h-15.6V0.5h15.6v1.8h-13.6V13h12.8v1.8h-12.8v12.1h13.6V28.7z"/>
	<path class="st3" d="M294.6,16.4v12.3h-2V0.5h6.8c3.5,0,6.2,0.6,7.8,1.9c1.7,1.3,2.5,3.2,2.5,5.8c0,1.9-0.5,3.5-1.5,4.8
		s-2.5,2.2-4.6,2.8l7.7,12.8H309l-7.4-12.3L294.6,16.4L294.6,16.4z M294.6,14.7h5.4c2.4,0,4.3-0.5,5.6-1.6c1.3-1.1,2-2.6,2-4.7
		s-0.7-3.7-2-4.7s-3.4-1.5-6.4-1.5h-4.7v12.5H294.6z"/>
	<path class="st3" d="M327.3,14.2h10.3v12.5c-2.7,1.1-5.7,1.7-9.1,1.7c-4.4,0-7.8-1.2-10.1-3.7c-2.3-2.5-3.5-5.9-3.5-10.4
		c0-2.8,0.6-5.3,1.7-7.4c1.2-2.2,2.8-3.8,5-5s4.7-1.8,7.5-1.8c3,0,5.8,0.6,8.2,1.7l-0.8,1.7c-2.4-1.1-4.9-1.7-7.5-1.7
		c-3.7,0-6.6,1.1-8.7,3.4c-2.2,2.2-3.2,5.3-3.2,9.1c0,4.1,1,7.3,3.1,9.3c2,2.1,5.1,3.1,9,3.1c2.6,0,4.8-0.4,6.5-1.1V16h-8.3v-1.8
		H327.3z"/>
	<path class="st3" d="M351.2,15.8l8.3-15.3h2.1l-9.4,17.2v10.8h-2V17.8l-9.5-17.3h2.3L351.2,15.8z"/>
</g>
<path class="st1" d="M339.5,97.3c0-3-0.9-5.5-2.6-7.5s-4.8-3.7-9.2-5.3c-6.2-1.9-11-4.4-14.4-7.5c-3.3-3.1-5-7.1-5-12.2
	c0-5.2,1.8-9.5,5.5-12.9s8.4-5.1,14.2-5.1c6.1,0,11.1,1.9,14.8,5.6c3.7,3.8,5.5,8.5,5.4,14.1l-0.1,0.3h-8.9c0-3.9-1-7-3.1-9.4
	s-4.8-3.6-8.2-3.6c-3.3,0-5.8,1-7.6,3.1c-1.8,2.1-2.7,4.6-2.7,7.7c0,2.9,1,5.3,2.9,7.1c1.9,1.9,5.1,3.7,9.7,5.3
	c6.1,2,10.7,4.5,13.8,7.7c3.2,3.2,4.7,7.3,4.7,12.4c0,5.4-1.9,9.7-5.6,12.9c-3.7,3.2-8.6,4.8-14.7,4.8c-5.8,0-10.9-1.7-15.2-5.2
	c-4.3-3.5-6.4-8.4-6.3-14.9l0.1-0.3h8.9c0,4.5,1.2,7.8,3.6,10s5.3,3.3,8.9,3.3c3.4,0,6.1-1,8.1-2.9S339.5,100.5,339.5,97.3z"/>
<path class="st1" d="M378.3,80h0.3l13.9-32.3h10.4L383,90.1v23.8h-9.3V89.4l-19.6-41.7h10.3L378.3,80z"/>
<path class="st2" d="M410.5,113.9V47.7h18.4c6.4,0,11.3,1.5,14.9,4.5s5.4,7.4,5.4,13.4c0,3.1-0.8,5.8-2.3,8.2s-3.7,4.2-6.5,5.3
	c3.9,0.6,6.8,2.5,8.9,5.5s3.1,6.6,3.1,10.7c0,6.1-1.8,10.7-5.3,13.9c-3.5,3.2-8.4,4.8-14.5,4.8L410.5,113.9L410.5,113.9z
	 M419.8,76.4h10.5c3-0.1,5.3-1.1,7-2.9s2.5-4.4,2.5-7.8c0-3.6-0.9-6.4-2.8-8.2s-4.6-2.7-8.2-2.7h-9.1v21.6H419.8z M419.8,83v23.9
	h12.8c3.3,0,5.9-1,7.8-3s2.7-4.9,2.7-8.7c0-3.6-0.9-6.5-2.7-8.7c-1.8-2.2-4.3-3.3-7.5-3.5h-0.5C432.4,83,419.8,83,419.8,83z"/>
<path class="st2" d="M471.4,106.9h26.9v7h-36.1V47.7h9.3L471.4,106.9L471.4,106.9z"/>
</svg>
