<?xml version="1.0" encoding="UTF-8" standalone="no"?>
<!--

Copyright (c) 2016, All partners of the iTesla project (http://www.itesla-project.eu/consortium)
This Source Code Form is subject to the terms of the Mozilla Public
License, v. 2.0. If a copy of the MPL was not distributed with this
file, You can obtain one at http://mozilla.org/MPL/2.0/.

-->

<!-- Created with Inkscape (http://www.inkscape.org/) -->

<svg
   xmlns:dc="http://purl.org/dc/elements/1.1/"
   xmlns:cc="http://creativecommons.org/ns#"
   xmlns:rdf="http://www.w3.org/1999/02/22-rdf-syntax-ns#"
   xmlns:svg="http://www.w3.org/2000/svg"
   xmlns="http://www.w3.org/2000/svg"
   xmlns:sodipodi="http://sodipodi.sourceforge.net/DTD/sodipodi-0.dtd"
   xmlns:inkscape="http://www.inkscape.org/namespaces/inkscape"
   width="300"
   height="200"
   id="svg2"
   version="1.1"
   inkscape:version="0.48.2 r9819"
   sodipodi:docname="danglingLine.svg">
  <defs
     id="defs4">
    <marker
       inkscape:stockid="TriangleOutM"
       orient="auto"
       refY="0"
       refX="0"
       id="TriangleOutM"
       style="overflow:visible">
      <path
         id="path5191"
         d="m 5.77,0 -8.65,5 0,-10 8.65,5 z"
         style="fill-rule:evenodd;stroke:#000000;stroke-width:1pt;marker-start:none"
         transform="scale(0.4,0.4)"
         inkscape:connector-curvature="0" />
    </marker>
    <marker
       inkscape:stockid="Arrow2Mend"
       orient="auto"
       refY="0"
       refX="0"
       id="Arrow2Mend"
       style="overflow:visible">
      <path
         id="path5072"
         style="font-size:12px;fill-rule:evenodd;stroke-width:0.625;stroke-linejoin:round"
         d="M 8.7185878,4.0337352 -2.2072895,0.01601326 8.7185884,-4.0017078 c -1.7454984,2.3720609 -1.7354408,5.6174519 -6e-7,8.035443 z"
         transform="scale(-0.6,-0.6)"
         inkscape:connector-curvature="0" />
    </marker>
    <marker
       inkscape:stockid="Arrow1Mend"
       orient="auto"
       refY="0"
       refX="0"
       id="Arrow1Mend"
       style="overflow:visible">
      <path
         id="path5054"
         d="M 0,0 5,-5 -12.5,0 5,5 0,0 z"
         style="fill-rule:evenodd;stroke:#000000;stroke-width:1pt;marker-start:none"
         transform="matrix(-0.4,0,0,-0.4,-4,0)"
         inkscape:connector-curvature="0" />
    </marker>
    <marker
       inkscape:stockid="Arrow1Lend"
       orient="auto"
       refY="0"
       refX="0"
       id="Arrow1Lend"
       style="overflow:visible">
      <path
         id="path5048"
         d="M 0,0 5,-5 -12.5,0 5,5 0,0 z"
         style="fill-rule:evenodd;stroke:#000000;stroke-width:1pt;marker-start:none"
         transform="matrix(-0.8,0,0,-0.8,-10,0)"
         inkscape:connector-curvature="0" />
    </marker>
    <marker
       inkscape:stockid="TriangleOutM"
       orient="auto"
       refY="0"
       refX="0"
       id="TriangleOutM-1"
       style="overflow:visible">
      <path
         id="path5191-1"
         d="m 5.77,0 -8.65,5 0,-10 8.65,5 z"
         style="fill-rule:evenodd;stroke:#000000;stroke-width:1pt;marker-start:none"
         transform="scale(0.4,0.4)"
         inkscape:connector-curvature="0" />
    </marker>
  </defs>
  <sodipodi:namedview
     id="base"
     pagecolor="#ffffff"
     bordercolor="#666666"
     borderopacity="1.0"
     inkscape:pageopacity="0.0"
     inkscape:pageshadow="2"
     inkscape:zoom="1.979899"
     inkscape:cx="125.74097"
     inkscape:cy="143.79968"
     inkscape:document-units="px"
     inkscape:current-layer="layer1"
     showgrid="true"
     showguides="false"
     inkscape:snap-global="true"
     inkscape:snap-bbox="true"
     inkscape:window-width="1280"
     inkscape:window-height="944"
     inkscape:window-x="-4"
     inkscape:window-y="-4"
     inkscape:window-maximized="1"
     inkscape:snap-bbox-midpoints="true"
     inkscape:object-nodes="true"
     inkscape:snap-smooth-nodes="true"
     inkscape:bbox-paths="true"
     fit-margin-top="10"
     fit-margin-left="10"
     fit-margin-right="10"
     fit-margin-bottom="10">
    <inkscape:grid
       type="xygrid"
       id="grid2985"
       empspacing="5"
       visible="true"
       enabled="true"
       snapvisiblegridlinesonly="true" />
  </sodipodi:namedview>
  <metadata
     id="metadata7">
    <rdf:RDF>
      <cc:Work
         rdf:about="">
        <dc:format>image/svg+xml</dc:format>
        <dc:type
           rdf:resource="http://purl.org/dc/dcmitype/StillImage" />
        <dc:title />
      </cc:Work>
    </rdf:RDF>
  </metadata>
  <g
     inkscape:label="Calque 1"
     inkscape:groupmode="layer"
     id="layer1"
     transform="translate(-24.0767,-775.86218)">
    <flowRoot
       xml:space="preserve"
       id="flowRoot4282"
       style="font-size:40px;font-style:normal;font-weight:normal;line-height:125%;letter-spacing:0px;word-spacing:0px;fill:#000000;fill-opacity:1;stroke:none;font-family:Sans"
       transform="translate(0,852.36218)"><flowRegion
         id="flowRegion4284"><rect
           id="rect4286"
           width="46.785713"
           height="105"
           x="136.07143"
           y="51.428574" /></flowRegion><flowPara
         id="flowPara4288" /></flowRoot>    <path
       style="fill:none;stroke:#000000;stroke-width:1.26956022;stroke-linecap:butt;stroke-linejoin:miter;stroke-miterlimit:4;stroke-opacity:1"
       d="m 129.0695,849.68811 47.03736,0 0,11.99311 -47.03736,0 z"
       id="rect2987" />
    <path
       transform="matrix(0,-1,1,0,0,0)"
       style="fill:none;stroke:#000000;stroke-width:1.26956022;stroke-linecap:butt;stroke-linejoin:miter;stroke-miterlimit:4;stroke-opacity:1"
       d="m -927.64331,75.312553 41.97588,0 0,13.439241 -41.97588,0 z"
       id="rect2987-1" />
    <path
       style="fill:none;stroke:#000000;stroke-width:1.26956022px;stroke-linecap:butt;stroke-linejoin:miter;stroke-opacity:1"
       d="m 82.032156,927.64329 c 0,17.98966 0,23.98621 0,23.98621 l 0,0"
       id="path3801"
       inkscape:connector-curvature="0" />
    <path
       style="fill:none;stroke:#000000;stroke-width:1.26956022px;stroke-linecap:butt;stroke-linejoin:miter;stroke-opacity:1"
       d="m 75.312534,951.6295 c 13.439244,0 13.439244,0 13.439244,0"
       id="path3805"
       inkscape:connector-curvature="0" />
    <path
       style="fill:none;stroke:#000000;stroke-width:1.26956022px;stroke-linecap:butt;stroke-linejoin:miter;stroke-opacity:1"
       d="m 79.344308,955.22743 c 5.375697,0 5.375697,0 5.375697,0"
       id="path3807"
       inkscape:connector-curvature="0" />
    <g
       transform="matrix(0.36272506,0,0,0.32369386,107.07576,812.25368)"
       style="font-size:40px;font-style:normal;font-weight:normal;line-height:125%;letter-spacing:0px;word-spacing:0px;fill:#000000;fill-opacity:1;stroke:none;font-family:Sans"
       id="flowRoot3833">
      <path
         d="m 92.253906,88.704189 0,-20.742187 3.164063,0 0,3.144531 c 0.807285,-1.471335 1.552727,-2.441386 2.236328,-2.910156 0.683585,-0.468729 1.435537,-0.703104 2.255859,-0.703125 1.184884,2.1e-5 2.389314,0.377625 3.613284,1.132812 l -1.21094,3.261719 c -0.85939,-0.507795 -1.71876,-0.761701 -2.578125,-0.761719 -0.768238,1.8e-5 -1.458342,0.231137 -2.070313,0.693359 -0.611986,0.462256 -1.048184,1.103532 -1.308593,1.923829 -0.390632,1.250013 -0.585944,2.617199 -0.585938,4.101562 l 0,10.859375 z"
         style=""
         id="path11680" />
      <path
         d="m 113.03516,84.075283 0,-7.851563 -7.79297,0 0,-3.28125 7.79297,0 0,-7.792968 3.32031,0 0,7.792968 7.79297,0 0,3.28125 -7.79297,0 0,7.851563 z"
         style=""
         id="path11682" />
      <path
         d="m 128.99219,64.153408 0,-4.082031 3.51562,0 0,4.082031 z m -4.45313,32.597656 0.66407,-2.988281 c 0.70312,0.182286 1.25651,0.273432 1.66015,0.273437 0.71615,-5e-6 1.25,-0.237635 1.60156,-0.71289 0.35156,-0.475265 0.52734,-1.663415 0.52735,-3.564453 l 0,-21.796875 3.51562,0 0,21.875 c 0,2.552079 -0.33203,4.329421 -0.99609,5.332031 -0.84636,1.302075 -2.25261,1.953116 -4.21875,1.953125 -0.95052,-9e-6 -1.86849,-0.123706 -2.75391,-0.371094 z"
         style=""
         id="path11684" />
      <path
         d="m 135.57422,88.704189 7.57812,-10.78125 -7.01172,-9.960937 4.39454,0 3.18359,4.863281 c 0.59895,0.924494 1.08072,1.699233 1.44531,2.324219 0.57291,-0.859361 1.10025,-1.621079 1.58203,-2.285157 l 3.4961,-4.902343 4.19922,0 -7.16797,9.765625 7.71484,10.976562 -4.31641,0 -4.25781,-6.445312 -1.13281,-1.738282 -5.44922,8.183594 z"
         style=""
         id="path11686" />
    </g>
    <g
       transform="matrix(0.36272506,0,0,0.32369386,62.206957,878.23474)"
       style="font-size:40px;font-style:normal;font-weight:normal;line-height:125%;letter-spacing:0px;word-spacing:0px;fill:#000000;fill-opacity:1;stroke:none;font-family:Sans"
       id="flowRoot3833-4">
      <path
         d="m 91.648437,90.422939 3.417969,0.507813 c 0.143224,1.054684 0.540359,1.822912 1.191406,2.304687 0.872389,0.651037 2.063794,0.976557 3.574219,0.976563 1.627589,-6e-6 2.884099,-0.325526 3.769529,-0.976563 0.8854,-0.651045 1.48436,-1.562503 1.79688,-2.734375 0.18227,-0.716147 0.26691,-2.220052 0.2539,-4.511719 -1.53647,1.809897 -3.45053,2.714844 -5.742184,2.714844 -2.85157,0 -5.058599,-1.028645 -6.621094,-3.085937 -1.562502,-2.057287 -2.343751,-4.524732 -2.34375,-7.402344 -10e-7,-1.979154 0.358072,-3.805324 1.074219,-5.478516 0.716143,-1.673159 1.754553,-2.965476 3.115235,-3.876953 1.36067,-0.911438 2.958976,-1.367166 4.794921,-1.367187 2.447903,2.1e-5 4.466133,0.989603 6.054693,2.96875 l 0,-2.5 3.24218,0 0,17.929687 c -2e-5,3.229166 -0.32879,5.517575 -0.98633,6.865234 -0.65757,1.347651 -1.69923,2.412103 -3.125,3.19336 -1.42579,0.781242 -3.18035,1.171866 -5.263668,1.171875 -2.473966,-9e-6 -4.472661,-0.556649 -5.996093,-1.669922 -1.52344,-1.113287 -2.259117,-2.789718 -2.207032,-5.029297 z m 2.910157,-12.460937 c -5e-6,2.721362 0.540359,4.707037 1.621093,5.957031 1.080722,1.250003 2.434887,1.875003 4.062503,1.875 1.61457,3e-6 2.96873,-0.621741 4.0625,-1.865235 1.09373,-1.243483 1.64061,-3.193351 1.64062,-5.849609 -1e-5,-2.539049 -0.56316,-4.45311 -1.68945,-5.742187 -1.12632,-1.289045 -2.48374,-1.933576 -4.07227,-1.933594 -1.562505,1.8e-5 -2.890629,0.634783 -3.984371,1.904297 -1.093756,1.269546 -1.64063,3.15431 -1.640625,5.654297 z"
         style=""
         id="path11671" />
      <path
         d="m 121.94141,84.075283 0,-7.851563 -7.79297,0 0,-3.28125 7.79297,0 0,-7.792968 3.32031,0 0,7.792968 7.79297,0 0,3.28125 -7.79297,0 0,7.851563 z"
         style=""
         id="path11673" />
      <path
         d="m 137.89844,64.153408 0,-4.082031 3.51562,0 0,4.082031 z m -4.45313,32.597656 0.66406,-2.988281 c 0.70313,0.182286 1.25652,0.273432 1.66016,0.273437 0.71615,-5e-6 1.25,-0.237635 1.60156,-0.71289 0.35156,-0.475265 0.52734,-1.663415 0.52735,-3.564453 l 0,-21.796875 3.51562,0 0,21.875 c 0,2.552079 -0.33203,4.329421 -0.99609,5.332031 -0.84636,1.302075 -2.25261,1.953116 -4.21875,1.953125 -0.95052,-9e-6 -1.86849,-0.123706 -2.75391,-0.371094 z"
         style=""
         id="path11675" />
      <path
         d="m 150.06641,88.704189 -3.26172,0 0,-28.632812 3.51562,0 0,10.214843 c 1.48437,-1.861959 3.3789,-2.792947 5.6836,-2.792968 1.27602,2.1e-5 2.48371,0.257182 3.62304,0.771484 1.13931,0.514343 2.07681,1.236998 2.8125,2.167969 0.73566,0.931007 1.31183,2.054052 1.72852,3.36914 0.41665,1.315118 0.62498,2.721367 0.625,4.21875 -2e-5,3.554695 -0.87893,6.302088 -2.63672,8.242188 -1.75783,1.940104 -3.8672,2.910156 -6.32813,2.910156 -2.44792,0 -4.36849,-1.022135 -5.76171,-3.066406 z m -0.0391,-10.527344 c 0,2.486988 0.33854,4.283861 1.01563,5.390625 1.10676,1.809899 2.60416,2.714846 4.49219,2.714844 1.53644,2e-6 2.86457,-0.667315 3.98437,-2.001953 1.11978,-1.33463 1.67967,-3.32356 1.67969,-5.966797 -2e-5,-2.70832 -0.53713,-4.707016 -1.61133,-5.996094 -1.07423,-1.289045 -2.37306,-1.933575 -3.89648,-1.933593 -1.53647,1.8e-5 -2.8646,0.667335 -3.98438,2.001953 -1.1198,1.33465 -1.67969,3.264987 -1.67969,5.791015 z"
         style=""
         id="path11677" />
    </g>
    <path
       style="fill:none;stroke:#000000;stroke-width:1.26956022;stroke-linecap:butt;stroke-linejoin:miter;stroke-miterlimit:4;stroke-opacity:1;stroke-dasharray:none"
       d="m 129.06951,855.68464 c -47.330215,0 -47.330215,0 -47.330215,0"
       id="path3895"
       inkscape:connector-curvature="0" />
    <path
       style="fill:none;stroke:#000000;stroke-width:1.25485301;stroke-linecap:butt;stroke-linejoin:miter;stroke-miterlimit:4;stroke-opacity:1;stroke-dasharray:none"
       d="m 82.032156,855.68464 c -25.849051,0 -25.849051,0 -25.849051,0"
       id="path3895-7-2"
       inkscape:connector-curvature="0" />
    <path
       transform="matrix(0.45218993,0,0,0.17294017,35.508697,832.77007)"
       style="fill:#000000;fill-opacity:1;stroke:#000000;stroke-opacity:1"
       d="m 37.869633,149.97873 c -4.137102,0.47634 -7.656376,-6.96302 -7.860519,-16.61625 -0.204142,-9.65324 2.984151,-17.86488 7.121253,-18.34121 4.137102,-0.47634 7.656376,6.96302 7.860519,16.61625 0.203605,9.62783 -2.967936,17.82696 -7.093363,18.33788"
       id="path3909-1-5" />
    <path
       style="fill:none;stroke:#000000;stroke-width:1.26956022px;stroke-linecap:butt;stroke-linejoin:miter;stroke-opacity:1"
       d="m 82.032156,855.68464 c 0,29.98277 0,23.98621 0,23.98621 l 0,5.99656"
       id="path8055"
       inkscape:connector-curvature="0" />
    <path
       style="fill:none;stroke:#000000;stroke-width:1.26956022;stroke-linecap:butt;stroke-linejoin:miter;stroke-miterlimit:4;stroke-opacity:1;stroke-dasharray:none"
       d="m 223.43709,855.68464 c -47.33022,0 -47.33022,0 -47.33022,0"
       id="path3895-4"
       inkscape:connector-curvature="0" />
    <path
       style="fill:none;stroke:#000000;stroke-width:1.26956022;stroke-linecap:butt;stroke-linejoin:miter;stroke-miterlimit:4;stroke-opacity:1;stroke-dasharray:none;marker-end:url(#TriangleOutM-1)"
       d="m 223.14422,813.70876 c 20.15887,0 20.15887,0 20.15887,0"
       id="path9783"
       inkscape:connector-curvature="0" />
    <g
       transform="matrix(0.36272506,0,0,0.32369386,222.24874,788.28643)"
       style="font-size:40px;font-style:normal;font-weight:normal;line-height:125%;letter-spacing:0px;word-spacing:0px;fill:#000000;fill-opacity:1;stroke:none;font-family:Sans"
       id="flowRoot3833-3">
      <path
         d="m 92.292969,96.653408 0,-28.691406 3.203125,0 0,2.695312 c 0.755201,-1.054668 1.608065,-1.845683 2.558593,-2.373047 0.950512,-0.527323 2.102853,-0.790994 3.457033,-0.791015 1.77082,2.1e-5 3.33332,0.455749 4.6875,1.367187 1.35415,0.911477 2.37628,2.197283 3.06641,3.857422 0.69008,1.660171 1.03513,3.47983 1.03515,5.458984 -2e-5,2.122405 -0.38088,4.03321 -1.14258,5.732422 -0.76173,1.699222 -1.8685,3.001304 -3.32031,3.90625 -1.45184,0.904948 -2.97853,1.357422 -4.58008,1.357422 -1.17188,0 -2.223314,-0.247396 -3.154294,-0.742187 -0.930997,-0.494791 -1.695971,-1.119791 -2.294922,-1.875 l 0,10.097656 z m 3.183593,-18.203125 c -5e-6,2.669278 0.540359,4.641933 1.621094,5.917969 1.080721,1.276044 2.389313,1.914064 3.925784,1.914062 1.56248,2e-6 2.90037,-0.660804 4.01367,-1.982422 1.11326,-1.321609 1.6699,-3.369133 1.66992,-6.142578 -2e-5,-2.643216 -0.54364,-4.622381 -1.63086,-5.9375 -1.08725,-1.315086 -2.38608,-1.972638 -3.89648,-1.972656 -1.497408,1.8e-5 -2.822277,0.699887 -3.974612,2.099609 -1.15235,1.399755 -1.728521,3.434258 -1.728516,6.103516 z"
         style=""
         id="path11657" />
      <path
         d="m 113.58203,74.583095 c 0,-3.385399 0.34831,-6.110005 1.04492,-8.173828 0.69661,-2.063778 1.73177,-3.655573 3.10547,-4.77539 1.37369,-1.119764 3.10221,-1.679659 5.18555,-1.679688 1.53644,2.9e-5 2.8841,0.309273 4.04297,0.927734 1.15884,0.618517 2.11587,1.510443 2.87109,2.675782 0.75519,1.165388 1.34764,2.584658 1.77734,4.257812 0.42967,1.673196 0.64452,3.929054 0.64454,6.767578 -2e-5,3.359386 -0.34508,6.070972 -1.03516,8.134766 -0.69012,2.063806 -1.72202,3.658856 -3.0957,4.785156 -1.37372,1.126302 -3.10874,1.689453 -5.20508,1.689453 -2.76043,0 -4.92839,-0.989583 -6.50391,-2.96875 -1.88802,-2.382807 -2.83203,-6.263012 -2.83203,-11.640625 z m 3.61328,0 c 0,4.700531 0.55013,7.828783 1.65039,9.384766 1.10026,1.555993 2.45768,2.333987 4.07227,2.333984 1.61457,3e-6 2.97199,-0.781246 4.07226,-2.34375 1.10025,-1.562493 1.65038,-4.68749 1.65039,-9.375 -1e-5,-4.713523 -0.55014,-7.84503 -1.65039,-9.394531 -1.10027,-1.549454 -2.47071,-2.324193 -4.11132,-2.324219 -1.6146,2.6e-5 -2.90366,0.683619 -3.86719,2.050782 -1.21094,1.744813 -1.81641,4.967466 -1.81641,9.667968 z"
         style=""
         id="path11659" />
      <path
         d="m 144.20703,84.075283 0,-7.851563 -7.79297,0 0,-3.28125 7.79297,0 0,-7.792968 3.32031,0 0,7.792968 7.79297,0 0,3.28125 -7.79297,0 0,7.851563 z"
         style=""
         id="path11661" />
      <path
         d="m 160.16406,64.153408 0,-4.082031 3.51563,0 0,4.082031 z m -4.45312,32.597656 0.66406,-2.988281 c 0.70313,0.182286 1.25651,0.273432 1.66016,0.273437 0.71614,-5e-6 1.24999,-0.237635 1.60156,-0.71289 0.35156,-0.475265 0.52734,-1.663415 0.52734,-3.564453 l 0,-21.796875 3.51563,0 0,21.875 c -1e-5,2.552079 -0.33204,4.329421 -0.9961,5.332031 -0.84635,1.302075 -2.2526,1.953116 -4.21875,1.953125 -0.95052,-9e-6 -1.86848,-0.123706 -2.7539,-0.371094 z"
         style=""
         id="path11663" />
      <path
         d="m 182.3125,96.653408 0,-10.15625 c -0.54689,0.76823 -1.31186,1.406251 -2.29492,1.914062 -0.98309,0.507813 -2.02801,0.761719 -3.13477,0.761719 -2.46094,0 -4.58008,-0.983072 -6.35742,-2.949219 -1.77735,-1.966141 -2.66602,-4.661451 -2.66602,-8.085937 0,-2.083321 0.36133,-3.951809 1.08399,-5.605469 0.72265,-1.653628 1.77083,-2.906882 3.14453,-3.759766 1.37369,-0.852843 2.88085,-1.279275 4.52148,-1.279296 2.5651,2.1e-5 4.58332,1.080749 6.05469,3.242187 l 0,-2.773437 3.16406,0 0,28.691406 z M 171.47266,78.274502 c -1e-5,2.669278 0.55989,4.671229 1.67968,6.005859 1.11979,1.334638 2.46093,2.001955 4.02344,2.001953 1.49738,2e-6 2.78645,-0.634763 3.86719,-1.904297 1.08071,-1.269525 1.62108,-3.199862 1.62109,-5.791015 -1e-5,-2.760404 -0.56967,-4.837225 -1.70898,-6.230469 -1.13934,-1.393212 -2.47723,-2.089825 -4.01367,-2.089844 -1.52345,1.9e-5 -2.81577,0.647804 -3.87696,1.943359 -1.0612,1.295589 -1.5918,3.317071 -1.59179,6.064454 z"
         style=""
         id="path11665" />
      <path
         d="m 190.37891,74.583095 c -1e-5,-3.385399 0.3483,-6.110005 1.04492,-8.173828 0.69661,-2.063778 1.73176,-3.655573 3.10547,-4.77539 1.37369,-1.119764 3.1022,-1.679659 5.18554,-1.679688 1.53645,2.9e-5 2.8841,0.309273 4.04297,0.927734 1.15884,0.618517 2.11587,1.510443 2.8711,2.675782 0.75519,1.165388 1.34763,2.584658 1.77734,4.257812 0.42967,1.673196 0.64451,3.929054 0.64453,6.767578 -2e-5,3.359386 -0.34507,6.070972 -1.03516,8.134766 -0.69012,2.063806 -1.72202,3.658856 -3.0957,4.785156 -1.37371,1.126302 -3.10874,1.689453 -5.20508,1.689453 -2.76042,0 -4.92839,-0.989583 -6.5039,-2.96875 -1.88803,-2.382807 -2.83204,-6.263012 -2.83203,-11.640625 z m 3.61328,0 c -1e-5,4.700531 0.55012,7.828783 1.65039,9.384766 1.10025,1.555993 2.45767,2.333987 4.07226,2.333984 1.61457,3e-6 2.97199,-0.781246 4.07227,-2.34375 1.10024,-1.562493 1.65037,-4.68749 1.65039,-9.375 -2e-5,-4.713523 -0.55015,-7.84503 -1.65039,-9.394531 -1.10028,-1.549454 -2.47072,-2.324193 -4.11133,-2.324219 -1.61459,2.6e-5 -2.90365,0.683619 -3.86719,2.050782 -1.21094,1.744813 -1.81641,4.967466 -1.8164,9.667968 z"
         style=""
         id="path11667" />
    </g>
    <path
       style="fill:none;stroke:#000000;stroke-width:2.53912044;stroke-linecap:butt;stroke-linejoin:miter;stroke-miterlimit:4;stroke-opacity:1;stroke-dasharray:none"
       d="m 223.14422,796.363 c 0,77.26706 0,77.26706 0,77.26706 l 0,0"
       id="path11383"
       inkscape:connector-curvature="0" />
    <path
       transform="matrix(0.45218993,0,0,0.17294017,206.18709,790.79419)"
       style="fill:#000000;fill-opacity:1;stroke:#000000;stroke-opacity:1"
       d="m 37.869633,149.97873 c -4.137102,0.47634 -7.656376,-6.96302 -7.860519,-16.61625 -0.204142,-9.65324 2.984151,-17.86488 7.121253,-18.34121 4.137102,-0.47634 7.656376,6.96302 7.860519,16.61625 0.203605,9.62783 -2.967936,17.82696 -7.093363,18.33788"
       id="path3909-1-5-0" />
    <path
       transform="matrix(0.45218993,0,0,0.17294017,206.18709,832.77007)"
       style="fill:#000000;fill-opacity:1;stroke:#000000;stroke-opacity:1"
       d="m 37.869633,149.97873 c -4.137102,0.47634 -7.656376,-6.96302 -7.860519,-16.61625 -0.204142,-9.65324 2.984151,-17.86488 7.121253,-18.34121 4.137102,-0.47634 7.656376,6.96302 7.860519,16.61625 0.203605,9.62783 -2.967936,17.82696 -7.093363,18.33788"
       id="path3909-1-5-0-6" />
  </g>
</svg>
