<?xml version="1.0" encoding="UTF-8" standalone="no"?>
<!--

Copyright (c) 2016, All partners of the iTesla project (http://www.itesla-project.eu/consortium)
This Source Code Form is subject to the terms of the Mozilla Public
License, v. 2.0. If a copy of the MPL was not distributed with this
file, You can obtain one at http://mozilla.org/MPL/2.0/.

-->

<!-- Created with Inkscape (http://www.inkscape.org/) -->

<svg
   xmlns:dc="http://purl.org/dc/elements/1.1/"
   xmlns:cc="http://creativecommons.org/ns#"
   xmlns:rdf="http://www.w3.org/1999/02/22-rdf-syntax-ns#"
   xmlns:svg="http://www.w3.org/2000/svg"
   xmlns="http://www.w3.org/2000/svg"
   xmlns:sodipodi="http://sodipodi.sourceforge.net/DTD/sodipodi-0.dtd"
   xmlns:inkscape="http://www.inkscape.org/namespaces/inkscape"
   width="300"
   height="180"
   id="svg2"
   version="1.1"
   inkscape:version="0.48.2 r9819"
   sodipodi:docname="line.svg">
  <defs
     id="defs4" />
  <sodipodi:namedview
     id="base"
     pagecolor="#ffffff"
     bordercolor="#666666"
     borderopacity="1.0"
     inkscape:pageopacity="0.0"
     inkscape:pageshadow="2"
     inkscape:zoom="1.979899"
     inkscape:cx="147.28835"
     inkscape:cy="51.264266"
     inkscape:document-units="px"
     inkscape:current-layer="layer1"
     showgrid="true"
     showguides="false"
     inkscape:snap-global="true"
     inkscape:snap-bbox="true"
     inkscape:window-width="1280"
     inkscape:window-height="944"
     inkscape:window-x="-4"
     inkscape:window-y="-4"
     inkscape:window-maximized="1"
     inkscape:snap-bbox-midpoints="true"
     inkscape:object-nodes="true"
     inkscape:snap-smooth-nodes="true"
     inkscape:bbox-paths="true"
     fit-margin-top="10"
     fit-margin-left="10"
     fit-margin-right="10"
     fit-margin-bottom="10">
    <inkscape:grid
       type="xygrid"
       id="grid2985"
       empspacing="5"
       visible="true"
       enabled="true"
       snapvisiblegridlinesonly="true" />
  </sodipodi:namedview>
  <metadata
     id="metadata7">
    <rdf:RDF>
      <cc:Work
         rdf:about="">
        <dc:format>image/svg+xml</dc:format>
        <dc:type
           rdf:resource="http://purl.org/dc/dcmitype/StillImage" />
        <dc:title></dc:title>
      </cc:Work>
    </rdf:RDF>
  </metadata>
  <g
     inkscape:label="Calque 1"
     inkscape:groupmode="layer"
     id="layer1"
     transform="translate(1.2975804,-796.61218)">
    <g
       id="g7860"
       transform="matrix(1.441332,0,0,1.441332,-7.9738568,-333.63705)">
      <g
         transform="translate(-13.17186,-64.999999)"
         id="g4030">
        <rect
           style="fill:none;stroke:#000000;stroke-width:1;stroke-linecap:butt;stroke-linejoin:miter;stroke-miterlimit:4;stroke-opacity:1;stroke-dasharray:none"
           id="rect2987"
           width="35"
           height="9.9999971"
           x="98"
           y="877.36218" />
        <rect
           style="fill:none;stroke:#000000;stroke-width:1;stroke-linecap:butt;stroke-linejoin:miter;stroke-miterlimit:4;stroke-opacity:1;stroke-dasharray:none"
           id="rect2987-1"
           width="35"
           height="9.9999971"
           x="-937.36218"
           y="58"
           transform="matrix(0,-1,1,0,0,0)" />
        <rect
           style="fill:none;stroke:#000000;stroke-width:1;stroke-linecap:butt;stroke-linejoin:miter;stroke-miterlimit:4;stroke-opacity:1;stroke-dasharray:none"
           id="rect2987-1-7"
           width="35"
           height="9.9999971"
           x="-937.36218"
           y="163"
           transform="matrix(0,-1,1,0,0,0)" />
        <path
           style="fill:none;stroke:#000000;stroke-width:1px;stroke-linecap:butt;stroke-linejoin:miter;stroke-opacity:1"
           d="m 63,902.36218 c 0,-20 0,-20 0,-20 l 35,0 0,0 0,0"
           id="path3795"
           inkscape:connector-curvature="0" />
        <path
           style="fill:none;stroke:#000000;stroke-width:1px;stroke-linecap:butt;stroke-linejoin:miter;stroke-opacity:1"
           d="m 133,882.36218 c 35,0 35,0 35,0 l 0,20"
           id="path3799"
           inkscape:connector-curvature="0" />
        <path
           style="fill:none;stroke:#000000;stroke-width:1px;stroke-linecap:butt;stroke-linejoin:miter;stroke-opacity:1"
           d="m 63,937.36218 c 0,15 0,20 0,20 l 0,0"
           id="path3801"
           inkscape:connector-curvature="0" />
        <path
           style="fill:none;stroke:#000000;stroke-width:1px;stroke-linecap:butt;stroke-linejoin:miter;stroke-opacity:1"
           d="m 58,957.36218 c 10,0 10,0 10,0"
           id="path3805"
           inkscape:connector-curvature="0" />
        <path
           style="fill:none;stroke:#000000;stroke-width:1px;stroke-linecap:butt;stroke-linejoin:miter;stroke-opacity:1"
           d="m 61,960.36218 c 4,0 4,0 4,0"
           id="path3807"
           inkscape:connector-curvature="0" />
        <path
           style="fill:none;stroke:#000000;stroke-width:1px;stroke-linecap:butt;stroke-linejoin:miter;stroke-opacity:1"
           d="m 168,937.36218 c 0,15 0,20 0,20 l 0,0"
           id="path3801-4"
           inkscape:connector-curvature="0" />
        <path
           style="fill:none;stroke:#000000;stroke-width:1px;stroke-linecap:butt;stroke-linejoin:miter;stroke-opacity:1"
           d="m 163,957.36218 c 10,0 10,0 10,0"
           id="path3805-0"
           inkscape:connector-curvature="0" />
        <path
           style="fill:none;stroke:#000000;stroke-width:1px;stroke-linecap:butt;stroke-linejoin:miter;stroke-opacity:1"
           d="m 166,960.36218 c 4,0 4,0 4,0"
           id="path3807-9"
           inkscape:connector-curvature="0" />
        <g
           transform="matrix(0.2698999,0,0,0.2698999,82.168678,846.14892)"
           style="font-size:40px;font-style:normal;font-weight:normal;line-height:125%;letter-spacing:0px;word-spacing:0px;fill:#000000;fill-opacity:1;stroke:none;font-family:Sans"
           id="flowRoot3833">
          <path
             inkscape:connector-curvature="0"
             d="m 92.253906,88.704189 0,-20.742187 3.164063,0 0,3.144531 c 0.807285,-1.471335 1.552727,-2.441386 2.236328,-2.910156 0.683585,-0.468729 1.435537,-0.703104 2.255859,-0.703125 1.184884,2.1e-5 2.389314,0.377625 3.613284,1.132812 l -1.21094,3.261719 c -0.85939,-0.507795 -1.71876,-0.761701 -2.578125,-0.761719 -0.768238,1.8e-5 -1.458342,0.231137 -2.070313,0.693359 -0.611986,0.462256 -1.048184,1.103532 -1.308593,1.923829 -0.390632,1.250013 -0.585944,2.617199 -0.585938,4.101562 l 0,10.859375 z"
             id="path3990" />
          <path
             inkscape:connector-curvature="0"
             d="m 113.03516,84.075283 0,-7.851563 -7.79297,0 0,-3.28125 7.79297,0 0,-7.792968 3.32031,0 0,7.792968 7.79297,0 0,3.28125 -7.79297,0 0,7.851563 z"
             id="path3992" />
          <path
             inkscape:connector-curvature="0"
             d="m 128.99219,64.153408 0,-4.082031 3.51562,0 0,4.082031 z m -4.45313,32.597656 0.66407,-2.988281 c 0.70312,0.182286 1.25651,0.273432 1.66015,0.273437 0.71615,-5e-6 1.25,-0.237635 1.60156,-0.71289 0.35156,-0.475265 0.52734,-1.663415 0.52735,-3.564453 l 0,-21.796875 3.51562,0 0,21.875 c 0,2.552079 -0.33203,4.329421 -0.99609,5.332031 -0.84636,1.302075 -2.25261,1.953116 -4.21875,1.953125 -0.95052,-9e-6 -1.86849,-0.123706 -2.75391,-0.371094 z"
             id="path3994" />
          <path
             inkscape:connector-curvature="0"
             d="m 135.57422,88.704189 7.57812,-10.78125 -7.01172,-9.960937 4.39454,0 3.18359,4.863281 c 0.59895,0.924494 1.08072,1.699233 1.44531,2.324219 0.57291,-0.859361 1.10025,-1.621079 1.58203,-2.285157 l 3.4961,-4.902343 4.19922,0 -7.16797,9.765625 7.71484,10.976562 -4.31641,0 -4.25781,-6.445312 -1.13281,-1.738282 -5.44922,8.183594 z"
             id="path3996" />
        </g>
        <g
           transform="matrix(0.2698999,0,0,0.2698999,48.801787,898.42093)"
           style="font-size:40px;font-style:normal;font-weight:normal;line-height:125%;letter-spacing:0px;word-spacing:0px;fill:#000000;fill-opacity:1;stroke:none;font-family:Sans"
           id="flowRoot3833-4">
          <path
             inkscape:connector-curvature="0"
             d="m 91.648437,90.422939 3.417969,0.507813 c 0.143224,1.054684 0.540359,1.822912 1.191406,2.304687 0.872389,0.651037 2.063794,0.976557 3.574219,0.976563 1.627589,-6e-6 2.884099,-0.325526 3.769529,-0.976563 0.8854,-0.651045 1.48436,-1.562503 1.79688,-2.734375 0.18227,-0.716147 0.26691,-2.220052 0.2539,-4.511719 -1.53647,1.809897 -3.45053,2.714844 -5.742184,2.714844 -2.85157,0 -5.058599,-1.028645 -6.621094,-3.085937 -1.562502,-2.057287 -2.343751,-4.524732 -2.34375,-7.402344 -10e-7,-1.979154 0.358072,-3.805324 1.074219,-5.478516 0.716143,-1.673159 1.754553,-2.965476 3.115235,-3.876953 1.36067,-0.911438 2.958976,-1.367166 4.794921,-1.367187 2.447903,2.1e-5 4.466133,0.989603 6.054693,2.96875 l 0,-2.5 3.24218,0 0,17.929687 c -2e-5,3.229166 -0.32879,5.517575 -0.98633,6.865234 -0.65757,1.347651 -1.69923,2.412103 -3.125,3.19336 -1.42579,0.781242 -3.18035,1.171866 -5.263668,1.171875 -2.473966,-9e-6 -4.472661,-0.556649 -5.996093,-1.669922 -1.52344,-1.113287 -2.259117,-2.789718 -2.207032,-5.029297 z m 2.910157,-12.460937 c -5e-6,2.721362 0.540359,4.707037 1.621093,5.957031 1.080722,1.250003 2.434887,1.875003 4.062503,1.875 1.61457,3e-6 2.96873,-0.621741 4.0625,-1.865235 1.09373,-1.243483 1.64061,-3.193351 1.64062,-5.849609 -1e-5,-2.539049 -0.56316,-4.45311 -1.68945,-5.742187 -1.12632,-1.289045 -2.48374,-1.933576 -4.07227,-1.933594 -1.562505,1.8e-5 -2.890629,0.634783 -3.984371,1.904297 -1.093756,1.269546 -1.64063,3.15431 -1.640625,5.654297 z"
             id="path3999" />
          <path
             inkscape:connector-curvature="0"
             d="m 126.82422,88.704189 -3.51563,0 0,-22.402344 c -0.84636,0.807314 -1.95639,1.614604 -3.33007,2.421875 -1.37371,0.807311 -2.60743,1.412779 -3.70118,1.816407 l 0,-3.398438 c 1.96614,-0.924457 3.68489,-2.044247 5.15625,-3.359375 1.47135,-1.315078 2.51301,-2.591118 3.125,-3.828125 l 2.26563,0 z"
             id="path4001" />
          <path
             inkscape:connector-curvature="0"
             d="m 144.20703,84.075283 0,-7.851563 -7.79297,0 0,-3.28125 7.79297,0 0,-7.792968 3.32031,0 0,7.792968 7.79297,0 0,3.28125 -7.79297,0 0,7.851563 z"
             id="path4003" />
          <path
             inkscape:connector-curvature="0"
             d="m 160.16406,64.153408 0,-4.082031 3.51563,0 0,4.082031 z m -4.45312,32.597656 0.66406,-2.988281 c 0.70313,0.182286 1.25651,0.273432 1.66016,0.273437 0.71614,-5e-6 1.24999,-0.237635 1.60156,-0.71289 0.35156,-0.475265 0.52734,-1.663415 0.52734,-3.564453 l 0,-21.796875 3.51563,0 0,21.875 c -1e-5,2.552079 -0.33204,4.329421 -0.9961,5.332031 -0.84635,1.302075 -2.2526,1.953116 -4.21875,1.953125 -0.95052,-9e-6 -1.86848,-0.123706 -2.7539,-0.371094 z"
             id="path4005" />
          <path
             inkscape:connector-curvature="0"
             d="m 172.33203,88.704189 -3.26172,0 0,-28.632812 3.51563,0 0,10.214843 c 1.48436,-1.861959 3.37889,-2.792947 5.68359,-2.792968 1.27603,2.1e-5 2.48371,0.257182 3.62305,0.771484 1.1393,0.514343 2.0768,1.236998 2.8125,2.167969 0.73566,0.931007 1.31183,2.054052 1.72851,3.36914 0.41665,1.315118 0.62498,2.721367 0.625,4.21875 -2e-5,3.554695 -0.87892,6.302088 -2.63672,8.242188 -1.75782,1.940104 -3.8672,2.910156 -6.32812,2.910156 -2.44793,0 -4.3685,-1.022135 -5.76172,-3.066406 z m -0.0391,-10.527344 c -1e-5,2.486988 0.33853,4.283861 1.01562,5.390625 1.10677,1.809899 2.60416,2.714846 4.49219,2.714844 1.53645,2e-6 2.86457,-0.667315 3.98438,-2.001953 1.11977,-1.33463 1.67967,-3.32356 1.67968,-5.966797 -1e-5,-2.70832 -0.53712,-4.707016 -1.61132,-5.996094 -1.07424,-1.289045 -2.37306,-1.933575 -3.89649,-1.933593 -1.53647,1.8e-5 -2.86459,0.667335 -3.98437,2.001953 -1.1198,1.33465 -1.6797,3.264987 -1.67969,5.791015 z"
             id="path4007" />
          <path
             inkscape:connector-curvature="0"
             d="m 203.62109,88.704189 -3.51562,0 0,-22.402344 c -0.84637,0.807314 -1.95639,1.614604 -3.33008,2.421875 -1.3737,0.807311 -2.60743,1.412779 -3.70117,1.816407 l 0,-3.398438 c 1.96614,-0.924457 3.68489,-2.044247 5.15625,-3.359375 1.47134,-1.315078 2.51301,-2.591118 3.125,-3.828125 l 2.26562,0 z"
             id="path4009" />
        </g>
        <g
           transform="matrix(0.2698999,0,0,0.2698999,155.80179,898.42093)"
           style="font-size:40px;font-style:normal;font-weight:normal;line-height:125%;letter-spacing:0px;word-spacing:0px;fill:#000000;fill-opacity:1;stroke:none;font-family:Sans"
           id="flowRoot3833-4-4">
          <path
             inkscape:connector-curvature="0"
             d="m 91.648437,90.422939 3.417969,0.507813 c 0.143224,1.054684 0.540359,1.822912 1.191406,2.304687 0.872389,0.651037 2.063794,0.976557 3.574219,0.976563 1.627589,-6e-6 2.884099,-0.325526 3.769529,-0.976563 0.8854,-0.651045 1.48436,-1.562503 1.79688,-2.734375 0.18227,-0.716147 0.26691,-2.220052 0.2539,-4.511719 -1.53647,1.809897 -3.45053,2.714844 -5.742184,2.714844 -2.85157,0 -5.058599,-1.028645 -6.621094,-3.085937 -1.562502,-2.057287 -2.343751,-4.524732 -2.34375,-7.402344 -10e-7,-1.979154 0.358072,-3.805324 1.074219,-5.478516 0.716143,-1.673159 1.754553,-2.965476 3.115235,-3.876953 1.36067,-0.911438 2.958976,-1.367166 4.794921,-1.367187 2.447903,2.1e-5 4.466133,0.989603 6.054693,2.96875 l 0,-2.5 3.24218,0 0,17.929687 c -2e-5,3.229166 -0.32879,5.517575 -0.98633,6.865234 -0.65757,1.347651 -1.69923,2.412103 -3.125,3.19336 -1.42579,0.781242 -3.18035,1.171866 -5.263668,1.171875 -2.473966,-9e-6 -4.472661,-0.556649 -5.996093,-1.669922 -1.52344,-1.113287 -2.259117,-2.789718 -2.207032,-5.029297 z m 2.910157,-12.460937 c -5e-6,2.721362 0.540359,4.707037 1.621093,5.957031 1.080722,1.250003 2.434887,1.875003 4.062503,1.875 1.61457,3e-6 2.96873,-0.621741 4.0625,-1.865235 1.09373,-1.243483 1.64061,-3.193351 1.64062,-5.849609 -1e-5,-2.539049 -0.56316,-4.45311 -1.68945,-5.742187 -1.12632,-1.289045 -2.48374,-1.933576 -4.07227,-1.933594 -1.562505,1.8e-5 -2.890629,0.634783 -3.984371,1.904297 -1.093756,1.269546 -1.64063,3.15431 -1.640625,5.654297 z"
             id="path4012" />
          <path
             inkscape:connector-curvature="0"
             d="m 132.05859,85.325283 0,3.378906 -18.92578,0 c -0.026,-0.846353 0.11068,-1.660155 0.41016,-2.441406 0.48177,-1.289059 1.25325,-2.558589 2.31445,-3.808594 1.06119,-1.249992 2.5944,-2.695303 4.59961,-4.335937 3.11197,-2.552071 5.21483,-4.573553 6.3086,-6.064454 1.09373,-1.490867 1.6406,-2.900371 1.64062,-4.228515 -2e-5,-1.393207 -0.49806,-2.568336 -1.49414,-3.525391 -0.99611,-0.957006 -2.29494,-1.435521 -3.89648,-1.435547 -1.69272,2.6e-5 -3.04689,0.507838 -4.0625,1.523438 -1.01564,1.015648 -1.52996,2.421897 -1.54297,4.21875 l -3.61328,-0.371094 c 0.24739,-2.695289 1.17838,-4.749324 2.79296,-6.162109 1.61458,-1.412733 3.78255,-2.119112 6.50391,-2.119141 2.74738,2.9e-5 4.92186,0.761747 6.52344,2.285156 1.60154,1.523463 2.40232,3.411482 2.40234,5.664063 -2e-5,1.145853 -0.23439,2.272154 -0.70312,3.378906 -0.46877,1.106787 -1.24677,2.272151 -2.33399,3.496094 -1.08725,1.223971 -2.89389,2.903657 -5.41992,5.039062 -2.10938,1.770841 -3.46355,2.972011 -4.0625,3.603516 -0.59897,0.631515 -1.09376,1.26628 -1.48437,1.904297 z"
             id="path4014" />
          <path
             inkscape:connector-curvature="0"
             d="m 144.20703,84.075283 0,-7.851563 -7.79297,0 0,-3.28125 7.79297,0 0,-7.792968 3.32031,0 0,7.792968 7.79297,0 0,3.28125 -7.79297,0 0,7.851563 z"
             id="path4016" />
          <path
             inkscape:connector-curvature="0"
             d="m 160.16406,64.153408 0,-4.082031 3.51563,0 0,4.082031 z m -4.45312,32.597656 0.66406,-2.988281 c 0.70313,0.182286 1.25651,0.273432 1.66016,0.273437 0.71614,-5e-6 1.24999,-0.237635 1.60156,-0.71289 0.35156,-0.475265 0.52734,-1.663415 0.52734,-3.564453 l 0,-21.796875 3.51563,0 0,21.875 c -1e-5,2.552079 -0.33204,4.329421 -0.9961,5.332031 -0.84635,1.302075 -2.2526,1.953116 -4.21875,1.953125 -0.95052,-9e-6 -1.86848,-0.123706 -2.7539,-0.371094 z"
             id="path4018" />
          <path
             inkscape:connector-curvature="0"
             d="m 172.33203,88.704189 -3.26172,0 0,-28.632812 3.51563,0 0,10.214843 c 1.48436,-1.861959 3.37889,-2.792947 5.68359,-2.792968 1.27603,2.1e-5 2.48371,0.257182 3.62305,0.771484 1.1393,0.514343 2.0768,1.236998 2.8125,2.167969 0.73566,0.931007 1.31183,2.054052 1.72851,3.36914 0.41665,1.315118 0.62498,2.721367 0.625,4.21875 -2e-5,3.554695 -0.87892,6.302088 -2.63672,8.242188 -1.75782,1.940104 -3.8672,2.910156 -6.32812,2.910156 -2.44793,0 -4.3685,-1.022135 -5.76172,-3.066406 z m -0.0391,-10.527344 c -1e-5,2.486988 0.33853,4.283861 1.01562,5.390625 1.10677,1.809899 2.60416,2.714846 4.49219,2.714844 1.53645,2e-6 2.86457,-0.667315 3.98438,-2.001953 1.11977,-1.33463 1.67967,-3.32356 1.67968,-5.966797 -1e-5,-2.70832 -0.53712,-4.707016 -1.61132,-5.996094 -1.07424,-1.289045 -2.37306,-1.933575 -3.89649,-1.933593 -1.53647,1.8e-5 -2.86459,0.667335 -3.98437,2.001953 -1.1198,1.33465 -1.6797,3.264987 -1.67969,5.791015 z"
             id="path4020" />
          <path
             inkscape:connector-curvature="0"
             d="m 208.85547,85.325283 0,3.378906 -18.92578,0 c -0.026,-0.846353 0.11067,-1.660155 0.41015,-2.441406 0.48177,-1.289059 1.25326,-2.558589 2.31446,-3.808594 1.06119,-1.249992 2.59439,-2.695303 4.59961,-4.335937 3.11196,-2.552071 5.21483,-4.573553 6.30859,-6.064454 1.09373,-1.490867 1.64061,-2.900371 1.64062,-4.228515 -1e-5,-1.393207 -0.49806,-2.568336 -1.49414,-3.525391 -0.9961,-0.957006 -2.29493,-1.435521 -3.89648,-1.435547 -1.69272,2.6e-5 -3.04688,0.507838 -4.0625,1.523438 -1.01563,1.015648 -1.52995,2.421897 -1.54297,4.21875 l -3.61328,-0.371094 c 0.24739,-2.695289 1.17838,-4.749324 2.79297,-6.162109 1.61458,-1.412733 3.78254,-2.119112 6.5039,-2.119141 2.74739,2.9e-5 4.92186,0.761747 6.52344,2.285156 1.60155,1.523463 2.40233,3.411482 2.40235,5.664063 -2e-5,1.145853 -0.2344,2.272154 -0.70313,3.378906 -0.46877,1.106787 -1.24676,2.272151 -2.33398,3.496094 -1.08726,1.223971 -2.8939,2.903657 -5.41993,5.039062 -2.10938,1.770841 -3.46354,2.972011 -4.0625,3.603516 -0.59896,0.631515 -1.09375,1.26628 -1.48437,1.904297 z"
             id="path4022" />
        </g>
        <path
           style="fill:none;stroke:#000000;stroke-width:1;stroke-linecap:butt;stroke-linejoin:miter;stroke-miterlimit:4;stroke-opacity:1;stroke-dasharray:none"
           d="m 63,882.36218 c -19.987603,0 -19.987603,0 -19.987603,0"
           id="path3895"
           inkscape:connector-curvature="0" />
        <path
           sodipodi:type="arc"
           style="fill:#000000;fill-opacity:1;stroke:#000000;stroke-opacity:1"
           id="path3909"
           sodipodi:cx="37.5"
           sodipodi:cy="132.5"
           sodipodi:rx="7.5"
           sodipodi:ry="17.5"
           d="m 37.869633,149.97873 c -4.137102,0.47634 -7.656376,-6.96302 -7.860519,-16.61625 -0.204142,-9.65324 2.984151,-17.86488 7.121253,-18.34121 4.137102,-0.47634 7.656376,6.96302 7.860519,16.61625 0.203605,9.62783 -2.967936,17.82696 -7.093363,18.33788"
           transform="matrix(0.33646977,0,0,0.14419963,28.382384,863.25573)"
           sodipodi:start="1.521492"
           sodipodi:end="7.8009537"
           sodipodi:open="true" />
        <path
           style="fill:none;stroke:#000000;stroke-width:1;stroke-linecap:butt;stroke-linejoin:miter;stroke-miterlimit:4;stroke-opacity:1;stroke-dasharray:none"
           d="m 187.84375,882.36218 c -19.6875,0 -19.6875,0 -19.6875,0"
           id="path3895-7"
           inkscape:connector-curvature="0" />
        <path
           sodipodi:type="arc"
           style="fill:#000000;fill-opacity:1;stroke:#000000;stroke-opacity:1"
           id="path3909-1"
           sodipodi:cx="37.5"
           sodipodi:cy="132.5"
           sodipodi:rx="7.5"
           sodipodi:ry="17.5"
           d="m 37.869633,149.97873 c -4.137102,0.47634 -7.656376,-6.96302 -7.860519,-16.61625 -0.204142,-9.65324 2.984151,-17.86488 7.121253,-18.34121 4.137102,-0.47634 7.656376,6.96302 7.860519,16.61625 0.203605,9.62783 -2.967936,17.82696 -7.093363,18.33788"
           transform="matrix(0.33646977,0,0,0.14419963,177.38238,863.25573)"
           sodipodi:start="1.521492"
           sodipodi:end="7.8009537"
           sodipodi:open="true" />
        <g
           transform="matrix(0.2698999,0,0,0.2698999,6.202946,862.30074)"
           style="font-size:40px;font-style:normal;font-weight:normal;line-height:125%;letter-spacing:0px;word-spacing:0px;fill:#000000;fill-opacity:1;stroke:none;font-family:Sans"
           id="flowRoot3833-1">
          <path
             inkscape:connector-curvature="0"
             d="m 104.55859,88.704189 -3.51562,0 0,-22.402344 c -0.84637,0.807314 -1.956391,1.614604 -3.330079,2.421875 -1.373705,0.807311 -2.607428,1.412779 -3.701172,1.816407 l 0,-3.398438 c 1.966139,-0.924457 3.684888,-2.044247 5.15625,-3.359375 1.471341,-1.315078 2.513011,-2.591118 3.125001,-3.828125 l 2.26562,0 z"
             id="path4025" />
        </g>
        <g
           transform="matrix(0.2698999,0,0,0.2698999,172.92619,862.30074)"
           style="font-size:40px;font-style:normal;font-weight:normal;line-height:125%;letter-spacing:0px;word-spacing:0px;fill:#000000;fill-opacity:1;stroke:none;font-family:Sans"
           id="flowRoot3833-1-6">
          <path
             inkscape:connector-curvature="0"
             d="m 109.79297,85.325283 0,3.378906 -18.925783,0 c -0.02604,-0.846353 0.110676,-1.660155 0.410157,-2.441406 0.481768,-1.289059 1.253252,-2.558589 2.314453,-3.808594 1.061193,-1.249992 2.594394,-2.695303 4.599609,-4.335937 3.111964,-2.552071 5.214834,-4.573553 6.308594,-6.064454 1.09373,-1.490867 1.64061,-2.900371 1.64063,-4.228515 -2e-5,-1.393207 -0.49807,-2.568336 -1.49415,-3.525391 -0.9961,-0.957006 -2.29493,-1.435521 -3.89648,-1.435547 -1.692718,2.6e-5 -3.046883,0.507838 -4.0625,1.523438 -1.015631,1.015648 -1.529953,2.421897 -1.542969,4.21875 L 91.53125,68.235439 c 0.247394,-2.695289 1.178382,-4.749324 2.792969,-6.162109 1.614577,-1.412733 3.782543,-2.119112 6.503911,-2.119141 2.74738,2.9e-5 4.92185,0.761747 6.52343,2.285156 1.60155,1.523463 2.40233,3.411482 2.40235,5.664063 -2e-5,1.145853 -0.2344,2.272154 -0.70313,3.378906 -0.46877,1.106787 -1.24676,2.272151 -2.33398,3.496094 -1.08726,1.223971 -2.8939,2.903657 -5.41992,5.039062 -2.10939,1.770841 -3.463555,2.972011 -4.062505,3.603516 -0.598965,0.631515 -1.093756,1.26628 -1.484375,1.904297 z"
             id="path4028" />
        </g>
      </g>
    </g>
  </g>
</svg>
